<svg xmlns="http://www.w3.org/2000/svg" viewBox="0 0 118.5 99.38"><defs><style>.cls-1{fill:lime;}</style></defs><title>Asset 19</title><g id="Layer_2" data-name="Layer 2"><g id="OBJECTS"><path class="cls-1" d="M83.64,35.65c.47,0-.27-2.23-.22-2.42,1.66.33.72,1.9.44,2.74C83.69,35.9,83.62,35.8,83.64,35.65ZM117.9.38l0-.38a1.58,1.58,0,0,0-1,.35c.09.36,1.38.13.22,1.16-.37.32-1.1-.05-1.53.13-.62.27-.84,1.15-1.61,1a9,9,0,0,0,.88,1.24c-.92-.09-2.3.94-2.18,1.85-2,.21-3.2-.45-5.06-.69-.83-.11-1.37.28-2-.45A24.82,24.82,0,0,1,104.42,2c-.93.26-1.56.29-2-1.38-.1,1.61-1.32.74-1.52,2.11-.12-.37-.35-.75-.5-1.12a5.51,5.51,0,0,0-.17,2c-.73-.33-1.44-1.71-2.22-.85.19.17,1.64.93,1.29,1.28-.68.47-.94,1.24-1.73,1.63A4.83,4.83,0,0,1,95,6c0,.37.11,1-.14,1.33s-.94.09-1.06.55C93.5,9,95,9.06,94.9,10.23c0,.44-.62,0-.65.24a2.62,2.62,0,0,0,.26,1.38c-.87,0-1.27.8-2.06.76-1,0-1-1.27-2-1.24,0,.34.09.93-.11,1.11s-.64-.07-.8.08c-.36.37-.61.94-1.09,1.18-.78.4-1.36.58-1.61-.54-.06-.26.62-.47.73-.73-.76-.42-.73-2-1.85-2.47-.42.66-1.47,1.13-1.55,1.65a3.2,3.2,0,0,0,.3,1s.14.13.14.2c0,.61-.61.64-.65.95-.11,1.13.67,1,.28,2.13-.1.28,0,.78-.21,1s-.62-.1-.71,0-.19.82-.33.9c-1.53.8-1.07-.41-2.22-.82s-2,.62-2.67,1.23a1.75,1.75,0,0,1-.78.15A1.26,1.26,0,0,1,77,19.51c-.29.26-.75.21-1,.39-.46.32-1,.63-1.46,1-1.7,1.21-1.11,3.15-1.9,4.74-.88,1.74-2.85.77-4.17,2a1.65,1.65,0,0,0-.72.17,7,7,0,0,0,.12.8c-.42.4-.52.27-1,.51a4.1,4.1,0,0,1-2.93.22c-.11.61-.79.65-.92,1-.2.57.87,1.11-.23,1.53a6.37,6.37,0,0,1-2.4-.64c-.08,0-.34.18-.46.12s-.29-.7-.47-.75-.75-.41-1.1-.27-.28.94-.62,1.2c-1,.75-.92,0-1.81-.35.35,1.07-.43.85.74,1.38.64.29,1.68.09,2.2.75a1.52,1.52,0,0,1-1.21,2.48,4.44,4.44,0,0,1-2.88-1.74c-.31-.39-.48-1-.73-1.3s-.93-.29-1.24-.95c-.47.39-1.21.5-1.64.89-.22.21-.39.71-.69,1.1,1.28.19.71.13.92,1A1.93,1.93,0,0,1,50.82,37a3.9,3.9,0,0,1-2.17,1.14c-.7,0-.31-.56-.68-.8s-1.28.31-1.39-.68c-.49.21-.82.81-1.33,1.06s-.59-.14-.87,0-1.09.67-1.49.85l-.78-.11L41.5,39c-.84.15-1.36-.1-2,.42s-.64,2-.8,2.53-.31,1.52-1.12,1.89c-1.36.62-1.29-.75-2.65-.58-2.41.3-.06,4.91-2.6,2.53,0,1.29-1,1.34-2,1.08a8.2,8.2,0,0,0-3-.63c-.42,0-1,.24-1.6.27a7.81,7.81,0,0,0-1.88.09c-.37.61.67,1.38-.25,2.29.32-.31-1.91.63-1.5.61-.57,0-1.09-.44-1.52-.49-.6-.06-2,.92-2.09-.39-.7.29-.94.67-1.73.69a6.74,6.74,0,0,1-1.77-.55c-.18,0-.32-.37-.51-.41-.69-.13-1.62.4-2.47.18,0,2.47-5.88-1.25-7.08,1.65a2.3,2.3,0,0,0-.18,1c.11.47.69.6.77.82a1.31,1.31,0,0,1-.24,1.46c0,.07-.53.14-.65.31a3.26,3.26,0,0,0-.23,1.43,3.41,3.41,0,0,0,.38,1.93c.46.68,1,.51,1.31,1.58a4.67,4.67,0,0,1-.36,3.12c-.67,1.17-1.06.73-2,.75-1.26,0-2.4.33-3.29-.91-.81,1.58.49.64.8,1.32s-.27,2.52-.3,3.39c-1-.18-1,2-.76,2.57a4.67,4.67,0,0,0,1.41,1.46c.49.27,1-.4,1.34.25s-1.93,1.8-.46,1.75c0,.44-.15,1.19.14,1.53-.13-.15,1.89.13,1.62.25.4-.17.21-.24.44-.37.41-.24,0-.7.84-1,.35-.14,1.22.08,1.54,0l.87-.59c0,1.11.09,1.1.71,1.79a4.77,4.77,0,0,1,0-1.68,5.78,5.78,0,0,1,1.31,1.47c.4.48,1.43,1,.94,1.82-.67,1.1-1.79-.54-2.1,1.15-.25,1.42,1.08.69,1.24,1.93a1.05,1.05,0,0,1-1.28,1c-.54-.1-.36-.7-.71-.91-.84-.52-.79-.79-1.93-.79-.35,0-.28.72-.93.41-.28-.12-.64-.87-.82-1.09s-.79-.72-1-.9c-.63-.6-.7-1.21-1.73-1.29,0,.45,1,.36,1.25.68s-.23.88-.08,1.2c.28.58,1.23.58,1.37,1.42C4.35,79.76,3,79.71,3.05,81a5,5,0,0,0,1.76,0c.4-2.39-.83-2.42,1.9-1.31.68.27,2.32-.08,2.71.42s-.38,1.4.52,1.59c0-.64,2.23-.51,2.56-.59.84-.19,3.49-1.19,1.72-2.18.7-.07,2.24-.42,2.64.29,0-.37.14-1.27.93-.61.5.4-.15,1.25-.27,1.83.23-.58,1.4-.73,1.88-.42,1,.64.15,1.66.45,2.58s1.26.44,1,1.9a1.82,1.82,0,0,1,2.89,1c.14.62-.35,1.73-.07,2.34.48,1,.68.41,1.84.63,2.74.53.28,3,.76,4.38-2.62-.2-.19,1.81-1.28,2.83s-1.5-1.42-2.59-.94c.26.76,1.41-.24,1.05,1-.13.46-1.21.22-1.57.79-.67,1.06.52,2.75,1.65,2.87s2-1.34,2.72-2.14c.95-1.16.73-1.55.79-2.84.08-1.58.65-1.67,2.3-2a6.64,6.64,0,0,1,4.14.2c.59.24,2.31,1.75,2.1,0,1.14.4.78-1.48,2.07-.33.35-.77,1.14-.91,1.42-1.38s-.17-1.25-.15-1.42c.1-.85.16-1.07,1.34-1,1,0,1.77.3,1.82,1.41.12-.06.25-.81.5-.77.78.15.81.77,1.32,1,1.11.56.24.1,1-.34a3.34,3.34,0,0,1,1.86-.55c-.44-.93-.07-.72.25-1.41a10.36,10.36,0,0,1,.59-1.09.88.88,0,0,1,.73-.38c0-.27,0-.54,0-.81.43-.49-.46-.89.84-.62.58.12.75.47.83,1,1.08-.13-.19-1.1,1-.64-.21-.29-.81-5.32-.24-4.95.38.24,1,3.12,1.19,3.67.33,1,.26,1.88,1.29,2.3,0,0-.36-2.41-.4-2.69-.16-1.32-.43-2.6-.58-3.92-.13-1.16-.35-2.33-.59-3.47-.08-.39-.85-3.22-1.27-1.67-.25-.73.69-.62.91-.94a9.53,9.53,0,0,0,.92-1.73,8.7,8.7,0,0,0-.17-4.47c-.52-1.84-1.33-3.49-1.44-5.45a11.44,11.44,0,0,1,1-4.56,28.93,28.93,0,0,1,2.15-4.09c.37-.73.5-1.66,1.16-2.24s1.23-.31,2-.7c1.06-.54,1.84-1.66,3.27-1.26,1.1.31.78.45,1.08,1.51.08.32-.3,1.38.44,1.19a.78.78,0,0,1,.46-1l-.06,1.09c.78.06.61-1.38.65-1.83.19.28,1.6,2.21,1.18.66a.49.49,0,0,0,.66.25c-1.39-.39.9-2.09,1.09-2.28a12.29,12.29,0,0,0,1.56-2.73c.41-.66.56-1.32.9-2,.71-1.3,1.91-1,3.35-1.45.14-1.25-2.58.11-2.83.08.31-1.39,5.78-.62,5.88.46,0-.39,0-.78,0-1.16.53.07.34,1,.36,1.26,1.86.33,3.61-1.41,5.09-2.16.67-.35,1.66-.36,2.2-1s.36-1.43.83-1.83c0,.53.11,1.84.44.73.14-.47-.17-1-.09-1.52-1.09.14-1.58-.39-1.37-1.37.07-.31.58-.53.72-.85s.13-1.31.28-1.78c.78-2.41,3.68-3,5.42-4.72a9.16,9.16,0,0,1,2.62-2.13c1.51-.74,3.47-1,4.75-2.06,2.27-1.8,2.87-4.55,5.4-6.33,2.16-1.52,4.73-2.56,6.81-4.12.1-.07,1.22-1.17,1.26-1.24.17-.28.29-.85.44-1.05s.24-.73.51-1.08c.13-.17,1.31-.85,1.53-1,1.7-1.28,2.53-3,3.82-4.7.66-.89,1.62-1.44,2.3-2.28C119.29,1.1,117.65,1.84,117.9.38ZM83.32,36.2c-1.27-.08-.72,1.14.21.66A.65.65,0,0,0,83.32,36.2Z"/></g></g></svg>