<svg xmlns="http://www.w3.org/2000/svg" viewBox="0 0 77.66 48.43"><defs><style>.cls-1{fill:olive;}</style></defs><title>Asset 30</title><g id="Layer_2" data-name="Layer 2"><g id="OBJECTS"><path class="cls-1" d="M77.66,20.19c0-.41-.78-1.13-.94-1.57-.35-1,0-.93-.79-1.75a5.93,5.93,0,0,0-1.57-1.51c-1-.43-1.41.16-2.36.24A10.07,10.07,0,0,1,67.74,15c-2-.74-3.43-.21-4.23,1.78a5.54,5.54,0,0,0-1.85-.28c-.18-.83.62-.6.78-1.18.11-.43-.28-.51-.18-.82.35-1.08.69-1.08,1.28-2,.18-.3-.21-.69.09-1.13s.79-.4,1-.75.73-.78.58-1.2-.81-.5-1-.72a9.72,9.72,0,0,1-1.09-1.56c-.65-1,.45-1-.89-1.21a2.41,2.41,0,0,0-1.68.79c-.32.39-.34,2.39-1.1,2.07-1.27-.56,1-2-1.33-2.14.06-1,3.17-2.79,2.74-3.43S60,3.23,59.39,3s-.57-.59-1-1S56.85.08,56.48,0c0,1.21-2.59,2.31-3.43,2.8s-2.22,1-2.68,1.8S50.85,6,49.6,6.1c.61,1-.3,1.62-1.12,1.79-1.36.27-2.36-.91-3.63-1.12s-2.42.42-3.61,0-2.14-2-3.7-1.88c-.1,1.9-1.29,1.24-2.64,2a7.88,7.88,0,0,0-2.58,2.77c-.17.3-.13,1-.42,1.25s-.74.06-.86.18-.56.39-.59.41.3.74.23.88c-.21.44-.86.44-1.2.7s-.42.58-.81.89a18.35,18.35,0,0,1-2.12,1.78c-.56.3-1.05.1-1.63.23-1,.21-1.79.9-2.73,1.16-1.76.47-1.86,0-2.19,1.75a6.74,6.74,0,0,1-2.89,4.54c-.88.66-3.78,2-3.55,3.43.11.69,1.42.34.88,1.51-.26.56-1.57,1-2,1.32-.88.63-.58.78-2,.9-.38,0-.63.51-1,.52-.75,0,.14-.86-1.24-.62,1.29.56-1.38,1-1.51,1-.42.22-.68.7-1,.88-1.35.74-2.59-.27-4.23,0-1.95.38-.59-.09-1.11,1.06s-.42.52,0,1.72c.46,1.41,1.53,1.46,2.2,2.71.4-.68,2.92-1.2,3.5-1,.06,0,1.12,1.44,1.13,1.47.41.91.21.41,0,1.08s-1.06,1.24-1,2.12.61.71,1,1.24,1,1.05,1,2.12c.25,0-.26-.46.33-.55a18.1,18.1,0,0,0,2.1-.48,23.28,23.28,0,0,0,3.47-1.35,6.77,6.77,0,0,1,5.6-.33c2.37.68,2.9-.31,5.18-.54a19.12,19.12,0,0,0,3.37-.47,3.35,3.35,0,0,0,2.31-2.18A12.61,12.61,0,0,1,33,35.48a12.43,12.43,0,0,0,1.41-1.4,1.51,1.51,0,0,0,.38-1.55c-.07-.62-.86-1.34.17-1.92.49-.27,1.07.05,1.54.17,1,.24.87.34,1.9.11,1.85-.4,3.42-1.61,5.12-2.58,2.88-1.64,5.85-2.59,8.77-4,1.28-.64,7.51-3.11,6.7.26-.4,1.66-2.39,1.45-1.52,3.64.26.66.77.7,1,1.19s.15,1.24.35,1.69a7.54,7.54,0,0,1,1.35-1.23c1.21,3.52-.73,5.26-4.24,5.86-.37.06-1.89-.35-2-.24s-.11,1.23-.36,1.61a10.53,10.53,0,0,1-2.15,1.89c-.53.29-1,.35-1.53.62s-.91,1-1.51,1.36-1.3.14-1.72.45-.65,1.12-1,1.56c-1.22,1.49-3.39,1.8-4.53,3.3a14.71,14.71,0,0,1,4.19.36C46.64,47,47.66,48,49,48.43c-.38-1.09.61-2.43,1.31-3.21a5.77,5.77,0,0,1,1.47-1.1,3.55,3.55,0,0,0,.8-.06c.36,0,.49-.19.41-.65,1-.88,1.32-1.81,2.4-2.56.3-.22.78-.28,1.1-.52.55-.41.65-1.16,1.14-1.57.69-.56,1.43-.62,2-1.25,1-1,1-2.5,2.38-3.38a10.67,10.67,0,0,1,3-.89,5.56,5.56,0,0,0,3-2c.26,1.16,2,0,2.6.18a11.52,11.52,0,0,1,1.11.78,1.59,1.59,0,0,1,.2,1q-.18.7.75.48c.83.58,3.1,1.73,3,.06,0-1-1.82-2.28-2.52-2.95C71.93,29.59,71,28,72,26.43c.56-.89,1.41-1.39,2-2.24.22-.3.53-1.31.71-1.48.79-.76,1.65-.45,2.61-.51C77.41,21.79,77.08,20.25,77.66,20.19Z"/></g></g></svg>