<svg xmlns="http://www.w3.org/2000/svg" viewBox="0 0 86.16 62.76"><defs><style>.cls-1{fill:green;}</style></defs><title>Asset 27</title><g id="Layer_2" data-name="Layer 2"><g id="OBJECTS"><path class="cls-1" d="M86,8.16l-.25-.7c-.87.65-.82,1.35-1.55.6-.36-.36-.52-1.48-.68-1.85-.41-1-1.36-2.26-.75-3.57.24-.5,2-1.23,1.64-2.07-.67-1.37-4.3.11-5.08.48s-4.59,1.12-3.83,2.16C74.57,2,66.36,7.47,65.1,8a6.74,6.74,0,0,1-1.77.65c-.61,0-1.46-1.08-2.12-.81s-.47.48-.42,1c0,.4.68.9.36,1.69a7.07,7.07,0,0,1-1.57,1.67c-1.33,1.35-2.81,2.52-2.62,4.53-1,0-1.23,1.46-2.21,1.81-.53.19-1.25,0-1.81.09-.89.18-1.95.24-2.86.45-1.41.34-2,1.06-3.63.87s-2.92-1.22-4.51-.95a11.35,11.35,0,0,0-1.88.88c-1.8.86-3.61,1.11-5.47,1.79.37,1-1.93,1.06-2.5,1.12-.13,0-.54-.38-.92-.11s.26,1.09-.45,1.54c-.29-1.82-.83-.52-1.69-.27a11.19,11.19,0,0,1-1.65.08c-.61.09-1,.68-1.66.55,0-1-.47-1.15-1.39-.75-.72.3-.39.71-1,1a3.83,3.83,0,0,1-1.65.15c-2.23-.06-4.49.43-6.79.07-1.63-.26-4-2.88-5.77-1.69-.46.32-.42.94-1,1.45-.84.75-2.73.68-3.75,1.06a2.35,2.35,0,0,0-1.8,2.42A6.09,6.09,0,0,0,2.73,30c0,.31.59.16.56.5s-.49.69-.65,1a26.5,26.5,0,0,1-1.56,2.22c-.18.23-.6.21-.88.67A4.14,4.14,0,0,0,0,35.84c.69-.44.62-2.33,1.92-1.14.45.41.5,2.07.66,2.69s.36.54.4,1.22c0,.26-.55,3,0,1.57C3.13,41.57,2.2,44,4.27,44s.8-1.74.6-2.87c-.07-.39-.36-.15-.11-.88a5.66,5.66,0,0,1,1-1.25c1-.54,2.56-.13,3.71-.61.25-.1.29-.4.6-.52a6,6,0,0,1,1.27-.14,6.09,6.09,0,0,1,1.6.06,15.62,15.62,0,0,0,3.63.24,6.16,6.16,0,0,1,2.71.33c.26.1.43-.07.73.11s.33.61.54.73c1.52.8.63-.49,2.07-.4-.09,2.45,1.23,2.3,2.32.95.81-1,1.74-.83,3-1.31-.67-.62-1-1.86.17-2.13s1.39,1.24,1.71,2.08c.18-.49.48-1,.64-1.45.41-1.26,0-1.64,1.31-1.72.5,0,1,.43,1.5.4s.61-.37,1-.43a25.93,25.93,0,0,1,2.87-.26c-.68.55-1.3.65-1.64,1.6,1.6.2.66,2.57.7,3.7,1.19,0,2.12-1.13,3.32-1,1.35.18,1.62,1.49,3.22,1.58-1.34,2.7,1.56,2.42,2.15,4.15.45,1.33-2.66,3.09-3.76,3.49,1,.67-.47.45-.81,1.45-.54,1.58,1,1.21,1.44,2,1.46,2.44-3,.35-3.37.37-.35,1.06.76,1.68.53,2.76-.08.33-.65.6-.79,1A8.08,8.08,0,0,0,38,57.59a38.73,38.73,0,0,0-.66,3.88c1-.11,2-.26,2.95-.37,0,.88-.29,1.48.52,1.64,1.29.25,1.52-1.34,1.87-1.94,0-.08.44.05.5,0-.12.2.37-.7.22-.55a4.78,4.78,0,0,0,1.23-2.8c.55.56.88,1.32,1.56,1.31.12,0,1.38-.5,1.61-.59s.66.18.94,0a9.15,9.15,0,0,0,.83-2.8c.13-.81,0-1.65.07-2.46l.06-1.2h.5c.77-1.08.59,1.13,1.19-1.3,0-.09.12-.65.13-.86a2.17,2.17,0,0,0,0-1.38l.4-.08c.49-1.26.62-3.49,2.42-3.82-.34-.83.06-2.28-.5-3-.73-.87-2.14-.32-1.17-1.63.19-.26.87-.42,1.1-.66.46-.51.35-1.17.68-1.67s1.71-1,2-1.64a.79.79,0,0,0-.16-.76c.2-.4-.7-.45.37-.61s.18.53,1,.89,1.72.72,2.45-.36c.58-.86-.15-1.56,0-2.38.09-.42.66-.64.75-1.09.21-1.14-.35-1.84.71-3.15.31-.38.85-.5,1.14-.95.48-.75,0-2.64,1.18-2.75.05,1.33.25,1.61,1.19,1.06a3.28,3.28,0,0,0,1-1.42c.63-1.3.68-1.78,2-2.62a13.85,13.85,0,0,0,3.63-2.78c.42-.5.15-.68.87-1.14s1.39-.43,2.11-1a9.17,9.17,0,0,1,1.51-1.1c.19-.11.44,0,.65-.1a11.08,11.08,0,0,0,2.3-2c.45-.7-.32-1.36.72-1.72.21-.07,1.37.33,1.79.27a7.79,7.79,0,0,0,1.25-.46C84.42,11,86.78,10.42,86,8.16Z"/></g></g></svg>