<svg xmlns="http://www.w3.org/2000/svg" viewBox="0 0 66.12 50.07"><defs><style>.cls-1{fill:#400000;}</style></defs><title>Asset 14</title><g id="Layer_2" data-name="Layer 2"><g id="OBJECTS"><path class="cls-1" d="M6.7,2.8c.64.12.72,2,1.11,2.66.08.13.17.54.21.6s.74.33,1,.69c.42.69-.28,1.78.23,2.43.81,1,2.22,0,2.8.93.48.79,0,1.37.72,2.08.41.39,1.62-.3,1.52.93s-3.82.72-4.72,1.12c.11-.05-1,.7-.93.66-.36.31-1.07-.05-.8.84s2.64.61,3.21,1.34c1.19,1.49-.7,2.58-2,2.71a10,10,0,0,0,3.84,3.73A23.84,23.84,0,0,0,15,24.73c.61.28,1.55.36,2,.88,2.42,2.83-3,1.82-3.84,2s-.78.93-1.75.7c-.24-.06-.07-1.25-1.19-.5-.2.13-.11.82-.34,1.05-.43.43-1,.48-1.46.82A5,5,0,0,0,7,31.11c-.91,1.22-1.45,1.29-2.73,2-.85.51-2.19,1-2.91,1.54C-.44,36-.23,39.06.68,40.93,1.25,42.1,4.92,44.76,2,46.08c1.45.89,3.15.68,4.8.74.52,0,1.76.29,2.22-.09.22-.19,0-1,.17-1a.83.83,0,0,1,.26-.2c1.12-.42,1.54,1.15,2.08,1.42,0,.43.17.62.49.58a.79.79,0,0,0,.76-.3c1,.08,1.58-1.13,2.3.45.32.68-.19,1.27.44,1.94a2,2,0,0,0,2.41.16c.2-.14-.11-.82.06-1s.53.07.65,0a1,1,0,0,0,1.06-.35,3.94,3.94,0,0,1,.35-.94c.62-.28,1.06-.69,1.78-.21,1.15.75.68,2.16,2.38,1.74l1.43-.74a1.59,1.59,0,0,0,1-.24,1,1,0,0,0,0-.6c1-.58,2.25-.27,3.19-.71.54-.25.35-.51.75-.78a8.66,8.66,0,0,0,.91-.51,5.62,5.62,0,0,0,.94-1.71c.94-2.84,2-1,3.76-1.07,1-.06,1-.4,1.78,0,1,.54,1.22,1.94,1.16,3,.47,0,1.29-.62,1.77-.27s.17,1.14.41,1.62c.34.69,0,.55.44,1s1.07.51,1.42.16c0,0,2.27-6.09,2.78-2.31a1.33,1.33,0,0,0,1.22-1.42c.66.07,1.52,1.25,2,1.12.06-1.45,1-1.11,1.47-2.27.23-.58-.09-1.33.14-1.89.31-.79.77-.4,1-1.57.16-1-.35-1.57.4-2.39.4-.45.93-.31,1.34-.88.28-.38.19-1.39.55-1.68s1.77-.1,2.26-.11c0-.06.54-1.93.54-1.93,1.39-.91,3.18,1,4.22,1.58,0-.65,1-1,1-1.43,0-.1-.65-1.23-.7-1.32-.23-.46-1-1.5-.67-2.06a1.6,1.6,0,0,1,.61,0h.73c0-.15,0-.3,0-.45.58-.41,0-.81,1-1,.57-.12.92.27,1.38.49-.16-1-.17-2.56-1.15-3.26-.35-.25-1-.28-1.26-.43-2.15-1.21-.8-2.69-.82-4.59,1.13.33,1-.19,1.6-.68a27.74,27.74,0,0,0,2.39-2.34c1.31-1.37.81-1.07.54-3.06-.19-1.44.49-2-.87-2.71,0,.6-.85,3.07-1.37,1.24-.62.62-.11,2.95-1.13,3-.57,0-1.23-1.45-1.83-1.67.1.88-1.78.87-2.45,1a6.24,6.24,0,0,1-1.36.41c-.64,0-1.6-.65-2.19-.36-1.56.78-.3,1.63-2.6.82a9,9,0,0,0-1.47-.47c-.35-.34-.28-2.08-.59-2.65a13.74,13.74,0,0,0-1.74,1.47c-.91.69-2.24,1.5-3.1,1.27-.49-.13-1.41-1.11-2-1.39a12.63,12.63,0,0,0-2-.72,7.51,7.51,0,0,0-1.49-.52c-.49,0-1,.42-1.66.27s-1.2-.8-1.94-.77-1.13.84-1.71,1.09c-.85.36-.29.29-1.14.18.06,0-1.73-.95-1.57-.73-.93-1.31,1.42-4.33-1.67-3.42-1.15.33-1.69,1.51-2.75,1.87a3.5,3.5,0,0,1-1.7,0c-.65-.37-.37-1-.74-1.33-.71-.56-1-.11-1.74-.4-.52-.21-.89-1-1.53-1.41-1.2-.73-3.39.16-4.28-.75s.56-2.93,0-4.18c-.47-1-.23-.66-1.39-.91-.64-.14-1.34.08-2-.07C12.17,2,12,.86,10.58.47,10.1.33,10-.06,9.4,0c.74-.09-1.08,1-.76.91-.6.24-1.82,0-2.34.55S5.59,2.86,6.7,2.8Z"/></g></g></svg>