<svg xmlns="http://www.w3.org/2000/svg" viewBox="0 0 57.53 96.79"><defs><style>.cls-1{fill:#80ff80;}</style></defs><title>Asset 15</title><g id="Layer_2" data-name="Layer 2"><g id="OBJECTS"><path class="cls-1" d="M.33,82.35l.27.25c-.17.07-.34.22-.51.3,1,.64.87,1.21,2.14,1.26.74,0-.11-.62,1.24-.3A8.3,8.3,0,0,1,4.92,85.2a10.64,10.64,0,0,1,1.83,3.22,6.76,6.76,0,0,1,.35.86c.12.76-.24,1.21-.18,1.84.6.22,1.08-.79,1.87-.6.45.11.23.44.34,1,1.54-.28.72-.3,1,.92.14.54.48,1,.66,1.62s-.1,1.38.08,2c.51,1.73,1.31-.16,2.55-.79.65-.33.81-.07,1.41-.46A6,6,0,0,0,16.54,93c.47-.93.12-2.33.57-3.08s2.17-1.18,2.91-1.55c1.29-.64,1.47-2.16,2.49-3.19.54-.53,1.52.34,1-1-.16-.4-.95-.73-1.33-.9,2.27-.86,4.56-.82,4.24-4,2.26.75.45-4.19.37-5.42s-.16-3.87-2.13-3.24c-.15-1.84,1.32-3.35.19-4.71.16.2-1.35-1-1-.81-.23-.12-1,.25-1.14,0-.65-.75-.37-2.71.12-3.5.81-1.34,2.24,0,3.73.09.89,0,2.74,0,3.2.9.14.28-.35,2.12.27,2.16,0-1.19,2.29-1.39,3.1-.91s.5.51.55,1.73c.83,0,1.06-1,1-1.65-.08-1.43-.83-.78-2.09-.95-3.52-.49-2-2.7-1.79-5.44.16-1.89-1.08-2.07-1.23-3.78-.1-1.07-.81-5.58.42-5.76,1.59-.24,1.08,2.64,2.41-.09.4-.8.53-3.17,1-3.68s-.21-.12,1.12-.28a30.23,30.23,0,0,1,4,.11c.64,0,2.49.8,3,.59.82-.38.39-2.08.72-2.71.55-1,1.62-.79,2.66-.78-.19-1.28-1-1.38-.57-3,.28-1,.84-1.07,1.24-1.72.19-.31.12-.8.26-1.19A3.72,3.72,0,0,1,47.64,33c-.4-.6-1.18-1.14-1.06-2s.64-.65.93-1.13.11-.8.62-1.45A9.46,9.46,0,0,1,50.27,27c.91-.63,3-1.21,3.37-2.22a1.4,1.4,0,0,0-.87-1.83c1.6.27,1.69-1.47,2.82-2.37.84-.68,1.18-.6,1.58-1.45a19.29,19.29,0,0,0,.36-2.07,3.64,3.64,0,0,1-3.6-2,15.08,15.08,0,0,1-.36-1.71c-.25-.85-.77-.85-.89-1.21-.42-1.21.76-3.37,0-4.3s-1.57.2-2.36-.53A5.56,5.56,0,0,1,49.62,6c-.17-.31-.59-1-.82-1.3-.62-.94-1.67-1.13-2.33-2-1-1.23,0-2.51-2.07-2.7a3.26,3.26,0,0,1,.09.45,1.69,1.69,0,0,0-1.68.81c-.82,1.32.24,2.37-2,2.69a6.13,6.13,0,0,1-2.52-.13c-.55-.24-.5-.7-1-.92-1.21-.51-.86-.08-1.74.32-.38.18-.89,0-1.21.29S34.22,4.57,33.73,5s-.8,0-1.13.29.11.81-.43,1-.52-.42-.75-.45-1.52-.42-1.93-.44-1.5-.06-2.18-.07c.12-1.17-2.94-.82-3.77-.77s-1.72.51-2.59.09c-.45-.22.15-1.35-1.1-.93s.69,1,.86,1.3c.71,1.29-.73,1.51-1.19,2.42-.35.7-.47,1.49.54,1.75.15,0,1.1-.54,1.5-.49.58.08.89.49,1.3.81.77-.94,1.87.55,2.61,1.31,1.41,1.45,3.06,4.65.17,5.57-1.18.38-1.45-.15-2.15,1.05-.31.51-.25,1.2-.54,1.72s-.73.57-.9.91-.13,1.25-.39,1.68-.86.51-1.29.88-.67.88-1.18,1.3a4.49,4.49,0,0,1-2.83,1.1c-.71.09-1.4.19-2.21.34-2.09.37-1,0-1.42,1.91-.31,1.23,0,.49-.27,1-.63,1-.88-.59-1.37.82-.11.33.13.44.13.55-.08,1.91.38,1.55-1.73,1.25-.07,2.38-.34,1-1.11,2.3s1.94,3.84-1.25,4c.54,2.61.45,4.89-2.42,5.42,2.23.3,1,2.18-.23,2.87-.5.28-1.11.45-1.54.69-.14.07,0-.53-.32-.53A18.09,18.09,0,0,0,2.85,48c.3.68.66.39,1.1.86,1.69,1.82.1,3.1-.17,5.16,2.18-.59,1.51.28,1.37,2.3C5.05,57.64,5,58,3.9,58.82c-.92.66-1.81.33-1.64,1.85,2.12-.89,3.19,3.55.58,3.5.05.31.45.57.33.92s-.51.72-.54,1c2.66-1.91,2.77,1.4,3.62,2.7-.53-.81,1.66,1,.91.67.66.26,1.57-.11,2.07.63.66,1-.23.9-.32,1.73a2.38,2.38,0,0,0,.83.27c-.63.41-.77,1.11-1.28,1.53a2.21,2.21,0,0,1-1.62.65c-1.45.09-1.67-.84-2.66-1.46-.72.74-2,1.36-2.58,2a6.42,6.42,0,0,0-.79,1.93c-.43,1.29-.2,1.38.37,2.56C2.21,81.42-1,81.13.33,82.35Z"/></g></g></svg>