<svg xmlns="http://www.w3.org/2000/svg" viewBox="0 0 9.83 12.19"><title>Asset 21</title><g id="Layer_2" data-name="Layer 2"><g id="OBJECTS"><path d="M7,12.17a1.62,1.62,0,0,0-.17-.72,7.29,7.29,0,0,1,1.48.6c-.05-.65.58-1.44.69-2.21.08-.55-.08-.6.2-.88,0-.36-1-.66-.71-1.3.2-.41,1.39.12,1.31-.75C9.76,6.2,8.89,6.38,8.73,6c-.28-.75.65-1.47.11-2.24,1-.36-.3-1.66-.94-1.92-.36-.16-1.07,0-1.5-.06a18.69,18.69,0,0,0-2.06-.61c.21,0-.61-.78-.92-.9A8.73,8.73,0,0,0,0,.09C.67,1.57,1,3.86,3.13,3.66c-.37,0-1.1,0-1.21.44-.19.79,1.68.38,2,.76A3.3,3.3,0,0,0,2.44,5a34.3,34.3,0,0,1,1.5,4.45,13.5,13.5,0,0,0,1.24,1.81C5.92,12.21,5.51,12.23,7,12.17Z"/></g></g></svg>