<svg xmlns="http://www.w3.org/2000/svg" viewBox="0 0 87.53 70.88"><defs><style>.cls-1{fill:#ff0;}</style></defs><title>Asset 9</title><g id="Layer_2" data-name="Layer 2"><g id="OBJECTS"><path class="cls-1" d="M63.33,70.6c.23-1.14.88-.63,1.57-1.06s1.4-1.87,2.81-1.53c1.19.28,1.55,1.18.66,1.95-.22.18-1,.16-1.28.4,0,.52,1.54-.28,1.88-.21.59.12,0,.61.84.72a2.34,2.34,0,0,0,.92-.24c.25-.41.28,0,.55-.3a10.56,10.56,0,0,0,1-2.39c.21-.89,1.2-4.07-.36-4.11.7-1.3.24-1.77,1.69-1.34.08,0,.7.81.85.89s.87-.14,1.09,0,.1.68.28.81a1.46,1.46,0,0,0,1.86.28c1.62-.83-.11-.45.49-1.57.35-.65,1.45,0,1.81-.5.17-.21,0-1.26-.06-1.51a3.71,3.71,0,0,0-1.68-2.57,6.47,6.47,0,0,0-1.32-.75c-.22-.11-.67.07-.87-.06-.4-.25-.86-.69-.41-1.14.25-.26,1.86,0,2.4-.31,1.12-.55.55-.78,1.28-1.68.52-.63,1.07-.23,1.67-.62,0,0,1-.89.58-.71l.88-.22c1.29-1,2.36-.48,3.79-1.09A3.7,3.7,0,0,0,83.48,51c-.8.11-1.28.79-2,.88s-2-1.14-2.07-1.69c-.07-.79.82-1.2.71-1.87s-1.27-.69-.89-1.53c.09-.2.13-.08.24-.19s1.29-.1,1.46-.18c.52-.23.41-.81,1.1-1-1.54-1.5.08-2.82-.85-4.38C80.68,40.14,80,40,80.81,39s2.29-.7,3.32-.71c-.06-1.56-2.9-.37-3.23-2-.29-1.41.79-.52,1.65-.75S83.3,34.41,84,34a4.16,4.16,0,0,1,1-.2c.31-.2.79-.12,1.17-.38.54-.36,1.55-1.65,1.37-2.4-.29-1.16-1.42-.36-2.11-1.51-.48-.81.19-1.83-.06-2.63-.4-1.34,0-.42-1-.9-.84-.39-.93.34-1.44-.75-.07-.14.3-.75.25-.83-.71-1.25-1.07-.57-2.29-1-.64-.21-.9-1-1.44-1.21-2-1-2.53.36-2.8-2.36-.06-.55.28-.82-.23-1.16-.29-.2-.92.53-1.15.43-.55-.24-.36-1-.56-1.42a5.39,5.39,0,0,0-.77-.95c-.64-.83-1.27-.52-.59-1.92.3-.62,1.37-1.1,1.45-1.85,0-.46,0-1.34-.57-1.51s-.44.56-1,.75c-.93.32-.77.34-1.47-.31a1.1,1.1,0,0,1,0-.76,1.65,1.65,0,0,1-1-.5,2.34,2.34,0,0,1,1.05-3.58c-1.31,0-.8-.62-.71-1.86-1.87-.25-.93.07-1.68,1-1.29,1.67-.82.57-2.08.32-.72-.14-1.83.25-2.37-.07-.29-.17,0-1-.14-1.32,0,0-1.71-1.25-1.67-1.25-.41.63-.75,1.19-1.53,1.39A2.57,2.57,0,0,0,61.34,4c0-.07-1.29-1.85-1.21-1.79-1.13-.84-2.88.45-3-1.84-.63.06-2,2.29-2.54.75-.71.44,0,1.89-1.38.89-.84-.58-.41-1-1.55-1.36A22.17,22.17,0,0,0,48.81.16l-1,.1-.78.1,0,.54s0,.21-.19.25a1.76,1.76,0,0,1-1.22,0c-.24-.14-.52-1-.61-1-.45-.19-1.54-.09-1.64.8.8.13,0,1.27.1,1.73.31,1.19.61.71,2,.8-.22,1.57-2.73,1.08-3.6,1.67-.33.23-.29,1.06-.48,1.17a4.77,4.77,0,0,1-1.69.08c-1.31-.08-2.07-.2-2.3-1.5-.28-1.62.51-1.77-1.54-1.74A7.59,7.59,0,0,0,33,3.86c-.71.26-1.56.24-2.24.54-.84.37-1.45,1.51-2.28,1.82a5.07,5.07,0,0,1-4.33-.72c-.61-.54-.8-1.35-1.55-1.68a9.36,9.36,0,0,0-2.53-.17c-.75,0-.87.19-1.57.26-.45,0-1.42.08-2,.09a15.64,15.64,0,0,1-2.16-.51c-1.1-.1-1.08.79-1.57-.73-.64-.09-1,1.13-1.1,1.55-.92,0-.31-1.91-1-2.22C10.63,2,10,5.44,10,5.71c-.09.47-.05,1.74-.45,2.11s-3,0-3.62,0c-2.11,0-4-.7-4.9,1.53-.59,1.38-2.45,5.15,1.12,4.16,1.08-.3.59-.39,1.18-1.09s.44-.79,1.45-1.19c.65-.26,1.18,0,1.89-.34.4-.21,1.08-1.2,1.58-1.06-.79,1.28-.55,1.26-2,2a16.17,16.17,0,0,0-2.15.91A3.14,3.14,0,0,0,3.89,15c.16.36.7.27,1.11.75s-.5.65-.62.79c.35,0,1.73.24,1.86.77s-.72.74-.58,1.27c.57,0,.53-.76,1.08-.81,0,.53-.73,1.36-.55,1.65.46-.2,1-1.11,1.57-.9,0,.13-.87,1.42-1.18,1.38,1.66,2.15,4,3.13,6.18,4.82,1,.78,1.77,1.78,3,2.15.43.13.93,0,1.39.14,1.25.38-.67.53,1.37.74.34,0,1.54-.18,2.2-.1,1.73.19,2.33-.28,3.68-.65.74-.2,1.56.12,2.3-.18.43-.17.56-.74,1-.87.25-.08,3.68-.94,1.18-1-.12-1.14,1.08-.32,1.23-.38a.41.41,0,0,0,.34.35.62.62,0,0,0,.53-.8c.68-.4.94-1.08,1.94-.9.47.09.39,1.66,1.58.65a23.23,23.23,0,0,0-2.14,3.76c-.54,1.3-2,1.87-2.72,3.12a.79.79,0,0,0-.35.76c.11.65-.19.82-.89.51,0,0-1.22.22-1,.26-1.27-.24-1.15-1-2.72,0,1.43,0,.43,1.3-.33,1.74-1.16.67-.78-.42-1.68-.34s-1.69,1.49-2.44,1.54c-.17-1.1-1.59-.47-2.49-.43.35.05.43.28.23.71-.36.1-.63-.41-.75-.39s-.86,0-1.18,0c-1,.08-1.64.76-2.47,1,.08-.46.73-.32.61-.89-1.51.11-.14-1.48.12-2a5.57,5.57,0,0,1-2.59.25c-.71-.8.9-.75.91-1.29a2.58,2.58,0,0,0-2.26,2.22c-.07,1.09,2,3.83,2.61,4.66a36.68,36.68,0,0,0,4.55,5.38c.81.77,1.7,1.5,2.46,2.32.59.64,1.38,2.46,2.43,2.34C20.68,50.78,32.91,60.2,35.11,60.5c.55.08.78-.33,1.29-.34s.71.43,1.05.5a13,13,0,0,1,1.81.44c.54-.1,1.19-.74,1.73-.91,1.25-.38,2.92-.45,4.11-.95.44-.18.83-.78,1.4-1,.41-.16,1.61.18,1.56-.64-.42,0-1,0-1.19.56-.53-.79,1.21-1,1.57-1a12,12,0,0,0,3.29-.84,8.81,8.81,0,0,0,2.89-1.37,1,1,0,0,1,.83-.3l0-.89c.16-.24.6-.79.88-1.17.77-1,1.72-1.69,2-3a22.79,22.79,0,0,0,.38-3c.09-.89-.37-1.54-.44-2.3A4.6,4.6,0,0,1,59.78,41a1.88,1.88,0,0,1-1.17-.2,6.69,6.69,0,0,0,.75-1.44c.51-.19,1,.54,1.47.54a13.22,13.22,0,0,0,1.28-.48c.3-.66-1.19-.35-1.46-.37a14.32,14.32,0,0,1,1.41-1c.73-.1,1.28.4,1.89.7,1.82.89,2.64.19,4.48.2C67,39.6,66.84,40.89,65,40c-.7-.36-1-1.23-1.76-.8s-.24,1.72-.94,2.09c1.11.88-.87,2.33.52,2.85.92.35,2.3-1.13,3.54-.42a12.51,12.51,0,0,1-2.06.79c-.37.07-.9-.22-1.23,0-.65.44-1.08,2.61-.82,3.48.67.11,2.76-.1,2.82.76a12.18,12.18,0,0,0-2.56.12c.79.7.35,1.07,1.68.75.72-.18,1-1.13,1.81-.79-.57,0-2.42,2.39-2.66,3,0-.06-.28,1.58-.31,1.81s.18.75.16.92A4.05,4.05,0,0,0,63,55.73c.22,0,1.41-.19,1.46.27a1.14,1.14,0,0,0-.9.74l1.82-.06c.12.54-.78.38-1.16.65.5.25.33.94.35,1.35a16.86,16.86,0,0,1,1.74-.06c-.5,1.12-.38.81-1.72,1.2.54,1,.6,1.31,1.8,1.39a.53.53,0,0,1-.57.67c-.61,0-.79.37-.56,1-.27.9,0,1.86-.43,2.76,1,.14,1,.84.38,1.45s-1,0-1.49.33c-.25.18,0,1-.26,1.17s-1.06.25-1.16.48C61.89,70,62.45,70.6,63.33,70.6Z"/></g></g></svg>