<svg xmlns="http://www.w3.org/2000/svg" viewBox="0 0 41.46 52.01"><defs><style>.cls-1{fill:#00ff80;}</style></defs><title>Asset 12</title><g id="Layer_2" data-name="Layer 2"><g id="OBJECTS"><path class="cls-1" d="M38.89,48.12c-.89-.8-.42-1.55.1-2.29.72-1,.77.08.75-1.23,0-1.65-1.87-3.22-2.49-4.62-1-2.24,0-.66-1.16-.2s-1.41-1.12-2.24-1.43c-.55-.21-2.35.48-2.25-.92h.28l-.28,0c0-.51.85-.89,1.06-1.37s-.06-.83.11-1.35a1.89,1.89,0,0,1,2.28-1.26c-.62-1.64-.17-3.58-.59-5.28a10.81,10.81,0,0,1,.17-6.51,10,10,0,0,1,.68-1.25c.66-1.08.36-1.68.82-2.76s2.15-2.09,2.83-2.84A26.78,26.78,0,0,0,40.86,12c.8-1.18.67-1.32.36-1.83a2.6,2.6,0,0,0-1.09-.85c-.43-.25-1.08-.38-1.55-.65s-.65-.53-1-.71-1,0-1.24-.26c-.46-.56.28-2.07-.08-2.77s-2-1.64-2.58-2.26S32.13.19,31.36,0c-.07.34.52.62.56,1,.07.58.06,1.39.17,2,0,.25-.24.59-.14.78s.79.18.91.39a3.67,3.67,0,0,1,.45,2.43c0,.62.46,3-.6,3.11.52-.06-2.82-2.38-2.25-1.27.71,0,.7,1.2.4,1.67s-1.41.12-1.69.91c0,.1.61,1.19.42,1.73-.12.36-.55.43-.83.61-2.08,1.38-.82-1.22-2.15-1.27-.48,1.54-.93,1-2.28.59,0,.76-1.26,4,.1,3.88-.14,1.44-.63.94-1.41,1.52-.26.19-.83,1.21-1.13,1.31A4.51,4.51,0,0,1,19.37,19c-.88-.46-.71-1.34-2.16-.86-.36.11.05.58-.34.7-1.53.45-2.47-1.05-3.63-.1a6.83,6.83,0,0,0-.9,1.34c-.17.24-.56.34-.7.62-.24.44.16,1-.25,1.37-1.12,1.11-1.28-.37-1.59-1S9,20.5,9,19.69s1-1,.85-1.88c-1,2.13-1.7-2.07-1.36-1.85-.58,1.59-2.84-1.49-4.46-1.19-.67.13-.63.49-1.1.63-1.38.42-1.63-.34-2.95-.55.07.73.74,1.63,1.34.93a2.45,2.45,0,0,1-.1,1.8C1.13,18,.17,18.1.7,19c.08.13,1.14-.11,1.21,0,.45,1-.3,2.46-.34,3.44C1.51,23.93,2,23.81.36,23.85c0,0,1.08.61,1,.58a1.68,1.68,0,0,0,.09.32c.06.27.3.27.71,0a4.73,4.73,0,0,1,1.45.13L4,24.24A4.87,4.87,0,0,1,6.7,25c.23.22.11.8.32,1,1.16,1.35,3.08-.17,4.43.26a8.27,8.27,0,0,1,1.16,1.24c.31.61-.17,1.39,0,2s.59.57.55.89c1.21-.16.35,1.92.34,2.67,0,1.81.51,2.55,1.19,4.14.15.35,0,1,.35,1.28s1.37-.18,1.73.12.11.85.49,1.41c.61.88,1.91,1.12,2.59,2.19,1,1.67.57,2.13,0,3.69-.26.76-.67,2.09.09,2.71.56.46,1.47,0,2.15.3-.31-2-.46-2.84,1.84-2.72-.76-1.82-1.06-3.35,1.61-2,.65.34,1.63,2,2.24,2.09,1.52.18.1-.51.73-1s.62-.64,1.8-.57c.09-2.44,2.84-.64,2.91.71,0,.07-.45.31-.47.38a12.12,12.12,0,0,0-.46,2.4c0,.58-.65,3.77.25,3.65A1.18,1.18,0,0,1,34,51a5.87,5.87,0,0,0-.18-1.31C35.87,51.19,37.28,49,38.89,48.12Z"/></g></g></svg>