<svg xmlns="http://www.w3.org/2000/svg" viewBox="0 0 45.34 44.18"><defs><style>.cls-1{fill:#ffff80;}</style></defs><title>Asset 5</title><g id="Layer_2" data-name="Layer 2"><g id="OBJECTS"><path class="cls-1" d="M38.3,12.53c-.68-.87-1.59-.35-2.16.44.21-1.41,1.89-2.81,1.34-4.33s-1.5.21-2.39.49a6.1,6.1,0,0,1-2.88,0c-.37-.26,0-.11-.26-.54s0-1.21-.36-1.75-.38-.45-.81-.83c-.89-.81-1.32-.77-1.28-2.14C28.05,4,26.76,5.24,25.18,5.4c-1.35.13-1.68-.27-2.76-.85A4.85,4.85,0,0,0,21,4c-.8-.25-.64.13-1-.09s-.69-1.3-1.12-1.58-.95-.16-1.5-.42c-.9-.45-.56-1.17-1-1.55-.68-.52-4.85-.39-5.58.16-.11.09-.7,1.27-.72,1.29C9.15,3,9.11,2.46,7.83,3c-.64.27-.86,1.18-1.6,1.48-1.11.45-2.16-1.37-2.29.3,1.48.07,1,1.89.87,2.89a3.6,3.6,0,0,1-.69,2.15c-.18.24-.79.39-.86.7-.14.65,1.14,1.54.78,2.27S2.2,13,2.09,14.5c0-.29-.3.26-.4.32-.56.33-.94-.21-1.27.36s.8,1.48-.42,1.88c1.91.13,4.64,2,4.65,4.05,0,.39-.75-.16-.63.86.09.7,1.28,1.65,1.69,2.23a4.87,4.87,0,0,1,1.07,2.27,6.69,6.69,0,0,0,0,1.34c1.14,1.11,1.62-1.33,2.06-1.44.72-.19,1.15,1,1.5,1.42.18.19.18.7.43.86.42.26.9-.12,1.34.15,1.12.71.17,2.25.32,3.31.23,1.69,1.91,1.32,2.94,2s1.89,2.43,2.89,3.38,1.91,1.18,2.16,2.61c.08.42-.18,1,0,1.39s1,.5,1.63.85c.48.26.62.7,1.13.89s.85,0,1.2.09c.63.26.06.08.46.83a7.7,7.7,0,0,0,1.64-1c.28-.19.83-.18,1-.48.27-.47-.18-.48-.16-.6,0,.08-.23-2.1-.23-2.33a1.48,1.48,0,0,1-.19-.79c0-.6.59-1.34.71-1.93.2-1-.51-2,.89-1.94a2.53,2.53,0,0,1,1-2,2.42,2.42,0,0,1,1.18-.76c.51-.05,1.05.73,1.37.66.38-.25.1-1,.47-1.23a7,7,0,0,1,2.23-.51c1-.2-.34-.23,1.3-.34a9.52,9.52,0,0,1,1.91.25c1,.2,1.85.21,2.94.34a5.4,5.4,0,0,1,2.38,1c.09.66.43.9,1,.7l1.05-.09c-.86-1.81-2-2.4-2.18-4.61-.78.67-1.06-.69-1-1.29.09-.83.67-1.4.78-2.29a5.76,5.76,0,0,0-.8-3.11c-.42-.9-.51-2.12-.95-2.93-.11-.2-.65-.19-.72-.34-.31-.66-.07-1.1-.28-1.67a9.8,9.8,0,0,0-.44-1c-.13-.24-.66-.2-.74-.58-.17-.73,1-1.05.65-2C39.53,12.84,38.69,13,38.3,12.53Z"/></g></g></svg>