<svg xmlns="http://www.w3.org/2000/svg" viewBox="0 0 99.51 73.18"><defs><style>.cls-1{fill:red;}</style></defs><title>Asset 1</title><g id="Layer_2" data-name="Layer 2"><g id="OBJECTS"><path class="cls-1" d="M99.44,24.94c-.48-1-.9-1-1.64-1.51A6.41,6.41,0,0,1,96.3,22c-1.42-1.66-2.82-.67-4.77-1.24a23.27,23.27,0,0,1-2.7-1.06c-.32-.13-1-.1-1.22-.28s0-.73-.3-.87c-1.94-.85-2,1.42-3.63,1.58-2.06.19-3.5-.72-5.55.13-1.42.6-3,1.1-4.37,1.66a13.61,13.61,0,0,0-1.55.82c-.53.3-.1.46-.77.64s-1.16-.22-1.71-.07c-1.21.33-1.41.94-1.41,2.09,2.88-2.07,3.45,1.4,1.67.79,1,.4.11,3.95,1.73,3.61A9.16,9.16,0,0,0,73,36.1a7.6,7.6,0,0,0,2.41,1.65c-.1.49.09.65.6.48l1.16,0a3.67,3.67,0,0,1,1.92.72c.08.07.14.23.2.28.06.31.13.61.21.91a2.44,2.44,0,0,0,.89.28c1.24.88,3.31,1.81,2.43,3.81a3.89,3.89,0,0,1-1.4,1.2c-.42.25-1.8.44-2.12.76,1.42.51.2,1.33.09,2.18s.34,1.39.43,2.24-.6,1.45-.57,1.88a6,6,0,0,0,2.47,3.8,12.28,12.28,0,0,1-.33-3c.27-.3,1.11,0,1.44-.16.66-.36.48.53.63-.61.06-.52-1-2.48-1.18-3.08-.55-1.67-1-2.53,1-2.7A15,15,0,0,1,85.2,47c1,.09,1.93,0,2.93.09C87.94,45.54,89.3,45.7,89.6,44A4,4,0,0,0,89,40.69a15.25,15.25,0,0,0,2.69-.26c1.07-.44.39-1,1-2,.84-1.24,2.19-.61,3.13-1.23.47-.31.78-2,1.2-2.84.73-1.48.4-2.94,1-4.36.21-.46.58-.44.76-1s-.08-.94,0-1.37C98.88,26.92,99.75,25.55,99.44,24.94Z"/><path class="cls-1" d="M21.27,63.6c0-.76-.59-.54-.8-1.11-.45-1.14,0-1.05-.72-1.82-.3-.29-.91-.48-1.25-.79a13.2,13.2,0,0,1-1.45-1.72c-1.45-1.86-.61-1.22.59-2.85a1.69,1.69,0,0,0,.31-2c-.45-1.15-1.51-1.22-2-2.2C15,49.36,16.83,48.66,18,48s2.69-1.07,1.51-2.17-4.56.87-4.26-1.79c.09-.88,1.1-1.26,1.23-1.83s-.5-.92-.52-1.71a1.52,1.52,0,0,1-2.24-.5c-.48-1.3,1.12-1.41,1.82-2.11s.39-1.63.82-2.43c.74-1.39,1.65-.51,2.78-.72s1.61-1.42,2.78-1.54a13.39,13.39,0,0,1,2.12.22c1.14.21,1.45.86,2.23,1.29.25.14,1.84.82,1.85.82,1.6,0,5.35-.12,6.27.77.47.44.37.9,1.24,1.18s2.11.15,3,.36c.44.09.85.39,1.33.33,1.27-.16,2.1-1.95,3.18-2.35,1.29-.47.73.12,1.67.13.19.6.56.57,1.12-.09.31-.15.64-.29,1-.42A9.58,9.58,0,0,1,50,35c2.91-.12,1-1.07,2.88-2.46.83-.61,3.55.24,3.79-.87.16-.78-1.73-3.26-2.11-4-.75-1.34-3.43-4.2-2.67-5.82s1.43.16,2.35.75c.24.15,1.37.84,1.53.89s.74,0,1,.12a1.08,1.08,0,0,1,.91.09,1.18,1.18,0,0,1,.36.64c1.07.56-1.14.92,1.29.58A2.3,2.3,0,0,0,61,23.8l.14.36c1.33-1.13,2.31-.76,1.09-2.06-1-1.07-1.88-.64-3.1-1.32-.78-.43-.53-.81-1.58-1.05-.56-.13-1.23.17-1.81.05-2.09-.43-1.77-1.83-2.2-3.51-.57-2.21-1.67-1.36-3.18-2.33-.58-.37-.53-.78-1-1.23-.83-.87-.78-.64-1.83-1-.72-.25-.93-.11-1.66-.64a12.08,12.08,0,0,1-1.73-1.56c-1-1.22-1.07-2.94-2.27-4.09a2.8,2.8,0,0,0-2.13-1c-.41,0-1.16.83-1.38.81-2.09-.15-.21-2.37-1-3.38-.48-.6-2.91-.67-3.71-.81-1-.17-2.17.46-3,.31-1.23-.22-1.37-1.7-3-1.2-.66.21-.62.77-1.36.87a11.19,11.19,0,0,0-2.71.33c-.66.23-1.68.3-2.29.57.14.81-.17,1.08-1,.79A8.49,8.49,0,0,1,19,2.33c-1.11-.27-2.95-1.1-4-.48,1,.53,4,1.22,2.2,2.47-1.26.86-3.34-.06-4.59-.25-1.9-.28-3.63-.18-5,1-.43.39-.73,1.4-1.13,1.83.1.77-.21,1-.92.83-.54-.23-.79-.14-.76.28-.12.07-.81,1-1.05,1.22s-1.17,1.4-1.25,1.44c-1.29.68-1.28-.5-2,1.32a3,3,0,0,0-.25,1.53c0,.35-.25,1.69-.22,1.8.17.56,2.05.69,2,1.74.38,0,1-.52,1.45-.62.07,0,1.43-.13,1.77-.12-.26,0,2,.62,1.65.39.74.44.45,1.84.84,2.39a7.73,7.73,0,0,0,2.18,1.6,4,4,0,0,1,1,.15,8.16,8.16,0,0,1,.71.73c1,.45,2.33-.07,3.25.37,1.74.83-.13,1.5-.47,2.57-.5,1.57,1.05,1.89,2,2.51.62.41,1.57.69,2,1,.77.56.75-.21,1,1,.2,1-1.09,3-1.83,3.47s-2.69.3-3.36,1,0,2.57-1.13,3.22c-1.54.94-2.26-1.18-3,1.19a8.61,8.61,0,0,0,.2,4.24,37.88,37.88,0,0,1,.89,9c-.07,1.42.19,2.93.09,4.31-.09,1.22.31,2.4.14,3.8,1,0,1.05.33,1.72.78l0,.6.84,0c1.19.45,2.07.18,3.13,1.06s1.87,1.07,2.63,1.84c.24.24.08.84.41,1.08.7.52.82-.26,1.51-.18A1.1,1.1,0,0,1,21.27,63.6Z"/><path class="cls-1" d="M52.19,35.09c-.86.84-3.31.14-4.49.47-.59.17-1.19.79-1.82.95l-.38.21c-.68.43-1,.31-1-.34-.33,0-.41-.23-.78-.22-.68,0-2,1.57-2.58,1.92a2.71,2.71,0,0,1-2,.51A24.4,24.4,0,0,1,35.36,38c-1.15-.34-1.23-1.56-2.09-1.78a13.4,13.4,0,0,0-1.83.17c-.69,0-1.34-.23-2-.3a10.23,10.23,0,0,1-1.78-.39c-1.94-.55-2.9-1.93-5.06-1.83a3.83,3.83,0,0,0-2.11.68c-.5.29-.59.59-1.23.71-.43.07-1.14-.3-1.43-.21-1.39.39-.94,2.35-1.95,3.27-.45.42-1.82.75-1.73,1.39s1.28.42,1.49.47c.82.2,0-.59.83,0,.09.06,0,.71.06.8.65,1.47.36.95-.49,2.33C14.35,46,18.39,44.45,19.59,45a4.38,4.38,0,0,1,1.07,1.47c0,.9-1.26,1.18-1.89,1.52s-2.26,1-2.5,1.76c-.45,1.37,1.42,1.79,2,2.72,1.68,2.77-1.85,3.09-1.56,4.77a23.77,23.77,0,0,0,1.84,2.07c.51.52,1.72.68,2.1,1.21s0,.85.17,1.34.65.77.88,1.1c.63.92.45,2,2.2,1.89.06-.8,0-1.27,1-1.18a17.52,17.52,0,0,1-.28,3.48c-.09.66-.82,1.12,0,2a2,2,0,0,1,1.89-.51c1,.17.76.76,1.52,1,1,.28,1.11-.6,2.18-.07.23.12.26.73.34.78.24.12.65-.16.9,0s1.17.82,1.57,1a18.49,18.49,0,0,0,2.26.46c.2-.08.48-1,.62-1,.48-.2,1.54-.19,2.08-.45,0,0,.72-.8.81-.88s.49-.28.71-.46a3.59,3.59,0,0,0,1.13-3.19c-.08-1.57-.63-.69-1-1.43a1.49,1.49,0,0,1,.67-1.74c1-.34.75.79,1.62.76.43,0,.92-1.1,1.16-1.29s0-.35.33-.49c.8-.36,1.43.27,2.18-.39.35-.31.42-1.19.79-1.61a2.13,2.13,0,0,1,1.73-.81c1-.12,4.15-.38,4.85.19.32.26,0,1,.3,1.25s.9.16,1.36.39c.89.45,1.23,1.59,2,2,.64.33,1.52.12,2.25.53s.85.82,1.74.92c1.86.19,3-1.3,4.59-1.47s.51.16,1.09,1.28c.86,1.69,2.41,1.46,2.4,3.88a9.83,9.83,0,0,0,2.21.09c.41-.11.93-.7,1.37-.88,2.65-1.1,1.9,2,1.49,3.69,1,0,1,1,1.91,1-.19-.48-1.27-.9-1.32-1.18s1.09-1.12,1.29-1.23c.56-.33,1.3-.34,1.83-.64s1-1.1,1.42-1c.06.94-.46,2-.25,2.92.84-.05,1.12.35.84,1.18l.55.15A5,5,0,0,0,81.33,73c.94.32.21.23.74,0,.36-.12,1-1.16,1.29-1.36s1-.42,1.18-.55c.53-.43.64-1.37,1.46-1.86.11,2.05,1.94-.66,2.16-.85.94-.85,2-.86.84-2.5-.69-1-2.19-2.31-2.43-3.49S88,60,87.36,59.08c-.56-.77-2.14-.37-2.91-.57a9.59,9.59,0,0,1-3.11-1.31,6.67,6.67,0,0,0-.56-1.08c-.28-.4-.65-.9-1-1.38a5,5,0,0,1-1.1-2.24c0-.46.66-.64.69-1.11.06-.77-.41-1.26-.52-2-.13-.91.45-1.21.52-1.9.07-.85-.84-1-.36-1.8.17-.29,1.66-.27,1.88-.38A4.06,4.06,0,0,0,82,44.29c1-1.57,0-2.43-1.41-3.2-.41-.23-1.13-.33-1.46-.66s-.23-1-.83-1.4c-.86-.63-2,.07-2.79-.32-.62-.29-.58-.64-1.17-1.17-.24-.22-.82-.26-1.15-.55-.66-.58-.31-.44-.72-1.27A16.57,16.57,0,0,1,70.9,32c-.12-.67.36-1,.24-1.71,0,.11-.72-.72-.74-.78-.55-1.34-.93-3,.32-3.88.08-1.21-2.53.5-2.89.41-.13-2.13-1.06-1.54-2.84-1.36-.87.09-1.91.07-2.79.08a7.7,7.7,0,0,0-1.87.4c-.32.06-.71.17-1,.23-1,.17-1-.1-1.55-.47s-.11-.65-.6-.87c-.3-.13-.74.21-1.07.08s-3.53-2.54-3.52-2.54c-1.25.66,3.35,7.36,3.71,8"/></g></g></svg>