<svg xmlns="http://www.w3.org/2000/svg" viewBox="0 0 63.04 49.84"><defs><style>.cls-1{fill:#000040;}</style></defs><title>Asset 34</title><g id="Layer_2" data-name="Layer 2"><g id="OBJECTS"><path class="cls-1" d="M.18,18.71c.24.32,1.65.17,2.09.68.73.86.31,1.74,1.27,2.62a10.83,10.83,0,0,1,1.89,1.82c.36.5.23,1.13,1.05.9,0,1.79.52,1.16,1.66,1.52C10,26.83,9.39,28,9.22,29.64c-.14,1.4.52,1.11.84,2.1a16.18,16.18,0,0,0,.55,2.32c.86,1.76,2,1.67,3.74,1.76-.28,1-.22,2.79-.83,3.59s-2.95,1.08-2.81,2.74c0-.33,1.61,1.84,1.52,1.77a4.06,4.06,0,0,0,1.39.62c1.87.69,2.33,0,4-.65s3.28,0,4.89-.47c.82-.25,2.49-1.59,3.34-1.08.31.19.19,4.63,0,5a3.1,3.1,0,0,1-.92,1c1.52.32,2.2,1.17,3.6.25s1.73-1.66,3.69-1.12a13.14,13.14,0,0,0,3,.92c.49,0,.39-.49.76-.34a.94.94,0,0,1,.39,1.58c1.46.39.77-.14,1.4-.8-.22.23,1.14-1.55,1-1,.11-.5-.5-1.22-.51-1.75,0-.73.42-.79.34-1.68s-.87-1.81-1.2-2.61a9.72,9.72,0,0,1,4,.47c1.82.45,2.91.75,3.66,2.77.47-.07.46-.78,1-.94,1-.3,1.58.49,2.25,1s0,.93,1,1a1.93,1.93,0,0,0,1.34-.7c-.54-.2-.56-1.2-.85-1.62-.42-.61-1.78-.67-.28-1.39A2.2,2.2,0,0,0,47.06,41c.58-1.19-1.17-1.55-1.82-2.46s-1.24-2.36.44-3c-.56-.43-1.8,0-2.44,0a6,6,0,0,1-3.37-1.68s-.5,0-.54,0c-.26-.13-.25-.66-.63-.82-.75-.32-1.94.5-2-.77-.23-.11-.93.15-1.05-.08-.32-.63.23-1.59.42-2.14.27-.76.91-1.8-.52-2.41,1-.08,1.95-.05,2.93-.08-.18-1,.1-2.37,1.85-1.37.47.28,0,.83.48,1.32,1.6,1.76,2.35-.94,3.22-1.67a11.51,11.51,0,0,1,1.67-1.19c.71-.38,1.77-.35,2.38-.72.87-.54.44-.77.94-1.64a7.79,7.79,0,0,0,1-.84,1.6,1.6,0,0,1,1.38-.23c.76.1,1.39.61,2.22.61.06-1.31-.77-1,1.12-.83,0-.49.44-1,.43-1.39,0-.62-1.11-.74-.41-1.43,1-1,2.13.86,2.81.88,0-1.58.7-2.78,2.51-2.87-.77-1-.24-.83.65-1.83a2.69,2.69,0,0,0,.62-2.65c-.05-.42-.19-1.3-.32-1.83,1.09-.09,2.53.13,1.68-1.57-.4-.79-1.09-.29-1-1.5,0-.33.49-.12.53-.35.34-1.67.42-3.25-1-4.43C60.36,1.12,58.22-.09,57,0c0,.63-.27,1.73-.69,2s-1.64-.33-2.14,0c-.31.22-.29,1.2-.51,1.55-.48.74-1.4.73-1.75,1.37-.26.47.22,1.28.12,1.76-.17.83-.61.91-.82,1.49s0,1.85-.41,2.48-1,.72-1.42,1.11c-1,.88.72.59-.43,1-.71.24-1.12-.55-1.61-.9-.45,1.36-1.79,1-2.25,1-.24,0,0-.69-.57-.52a13.6,13.6,0,0,0-.85,1.26c-.54,1.47-.23,2.1-1.8,2-1-.08-1.19-.83-1.43-1.84-.58-2.41-.5.37-2.07-.83-.3-.22.14-.43-.09-.88-.42-.84.11-1-.83-1.75-1.16-.91.21-.17-1.6-.27a1.87,1.87,0,0,1-1.45-.1c0-.32-.16-.48-.38-.48-1.47,0-1.27.49-1.75,1.81-.12.32.06.9-.21,1.18s-.92.16-1.25.43-.23.87-.72,1.17-1.73-.1-2.4.2c-1,.45-1.3.92-2.34,1.39-.2.09-1.19.8-1.26.82a2.48,2.48,0,0,1-2.3-.61c-.38-.4-.32-1.3-.89-1.38-1-.14-.54.63-1,1a11.85,11.85,0,0,1-1.68.64c-.86,1.25.6,1.79-1.84,1.32a2.36,2.36,0,0,1-2.1-1.67c-.34-.84.44-1.41-.79-1.62s-1.3,1.32-2.61.24c-.66-.54-.29-1.17-1.45-1.47-.23,3-6.77.81-8.47.26-.07.73.31,1.18.25,1.86,0,.28-.35.86-.4,1.22S1,17,.85,17.57-.44,17.85.18,18.71Z"/></g></g></svg>