<svg xmlns="http://www.w3.org/2000/svg" viewBox="0 0 68.36 104.54"><defs><style>.cls-1{fill:teal;}</style></defs><title>Asset 20</title><g id="Layer_2" data-name="Layer 2"><g id="OBJECTS"><path class="cls-1" d="M12.94,85.4c.21-.07,0-.16-.11-.19a1.4,1.4,0,0,1,1.11,0c.46.23.56,1.84.8,2,.45-1.44,2.48,0,1.85.79.48,0,.7-.11.72.35.35-.32.63-.25,1-.42-.12,1,.38,1.31.78,2.16a.74.74,0,0,1,1.25-.12c.24.38-.36.72-.37,1,0,.41-.29.76,0,1.38.46.9.29.19,1,.73a12.6,12.6,0,0,1,1.89,2.31,10.57,10.57,0,0,0,1.35,1.07c.35.17,1,.08,1.2.24.62.42.55.48,1,1s.16.73,1.17,1.13c2,.78,3.19-1.59,3.21,1.11,1.45-.18,2.28,1.51,3.5,2,.54.24,1.11.45,1.61.7,0,.15.07.31.1.46l.91-.06c.78.56,1,.25,1,1.5a8,8,0,0,1,2.52-.27c1.26-.08.81.1,1.31-.61.65-.94.46-1.85,1.84-2.28s1.52,0,2.4.76c.52-1.94,3.68-.23,5,0,.26-3.7,4-1.74,4.56-4.66s-3.2-1.06-4.42-2.72a7.78,7.78,0,0,0,2.31-1.86c.4-.7.6-1.89-.42-1.73.35-.94-.12-2.54.47-3.05s1.87.3,2.6-.67c.43-.57,0-1.82.54-2.31,1.07-1,2.59.65,3.25.65.25,0,.32-.68.55-.7.61-.05.66.34,1.1.53s1.21.61,1.85.86c-.14-.94,0-1.69,1.06-1.85-1-.46-.54-1.38.4-1.38s1.09,1.34,1.64,1.36c.38-.1-.3-2.15,0-2.55s.77-.3,1-.5.19-.43.42-.93c.15-.35.76-1.86.36-2.29s-2,.28-2.53-.08c-.81-.5-.37-2.14-.5-3.13-.23-1.74-.66-.75-2.06-.76-.05,0-.33.43-.69.21s.14-.67-.12-.93,0-.41-.33-.66-.72.23-.92.06c-.54-.44-.16-.51-.14-1,0,0,.92-1.67.48-2.17s-1.21.2-1.31.21c-.74.13-1.61.47-.9-1-.87.18-.78-.51-1.77-.44.24,1-.66,1.44-1.4,2-1.21.8-1.63.06-3.16.58-.83.29-.87,1.29-1.66.11s.12-1.1-.93-1.57c-.5-.22-1.17,0-1.7-.25-.38-.15-1-.87-1.33-.88-.07,1.13.52,1.8-.64,2.26-.33.13-1.79.1-2-.22-.81-1.14.75-1.72.85-2.1.24-.88-.55-1.72-1.13-2.39a4.11,4.11,0,0,1,.08-.6,3.65,3.65,0,0,0-.64-.28c-.15-.28-.52,0-.63-.18a.92.92,0,0,1,.19-1.17c1.09-.76,2.2,1.31,2.63,1.73s1.51.64,1.59,1.59c.49-.22.55-.74,1.64-.43s1.37,1.37,2.09,1.6c1.07.36-1.11-1.39-.85-1a2,2,0,0,1-.1-1.75c.43-1.15.66-.41,1.32-1,.11-.11.81.16.85-.11-.8-.27-.87-1.82-1.36-1.93-.1,1.36.66,2-.8,1.24-.8-.4-.84-.26-.94-1.22-.67.41-1.52-.31-2.12.2-.23.18.1,1-.11,1.16-.57.44-1.38-.16-1.79-.26-1.3-.3-.84-.07-1.46-1-.14-.23-.65-1-.63-1.29a1.88,1.88,0,0,1,.86-1.15c-1.22.27-1.42-.65-1.82-1.17-1.11-1.5-.5-2-.37-3.63a12.81,12.81,0,0,0,.72-2.79c-2.25.16-.61-2.14-.4-2.79,1.24,1.39,1.1,1.22,2.68,1.32.61,0,1.32.55,1.86.23.76-.44.88-2.25.76-2.94-.22-1.38-.67-.94-1.33-1.9s-.82-4.32.87-4.39c-.13-1-1.15-1.3-.82-2.65a2.45,2.45,0,0,1,.58-1.13c1.57-1.62,4.66-.31,6.57-.28,0-1.48-.32-3.12,0-4.58a2.52,2.52,0,0,1,.47-1.22c.29-.29,1.17.31,1.24-.43-.71,0-5.37-.85-5.63-1.45-.63-1.44,2.12-1.38,2.63-1.76s1.65-1.67.33-1.61c.39-1.16-.67-2.23.81-2.26a6.27,6.27,0,0,1,0-2.16,8.61,8.61,0,0,0,.38-1.87c-.1-.91.18-.47-.14-1-.24-.37-1.26,0-1.36-.88,0-.4,1.9-2.41,2.27-2.85.62-.74,1.89-2,3-1.94-.57-.71-4,0-4.36-1-.5-1.43,2.68-1.93,2.06-3.86,1.79.43,1.65-1.86,1.64-2.75,0-1.11.33-1.08.48-2.06.06-.4-.37-1.19-.26-1.8-.54,0-1.08,0-1.63,0,.17-1-.77-.5-.95-1.31,0-.18.25-.52.32-.32-.08-.22.38-1.31-1-.88-.1,0-.82,1.07-1,1.28A11.24,11.24,0,0,1,51.08,2.5c-.35.24-.2.63-.77.82-.88.3-2.2-.93-2.81.29.85.39.86,1.89-.15,1.93.08.76.17.64-.27.72-.16.38.14.35-.38.31.17.79-1.69.78-2.3.5,0,.36.82.73.7,1-.31.64-.67.65-1.2,1.14.1-.09-.47.84-.27.78-1.19.37-.3-.08-1.34-.46-1.45-.53-1.9,0-2.61,1.05-.46.7.41.52-.74,1-.17.09-.84-.24-1.1-.29.21.72-.1,1.22,0,1.8a15.91,15.91,0,0,0,.67,1.47,10.48,10.48,0,0,1-.3,1.65,8.68,8.68,0,0,0-3.45-1.38c-1.08-.13-1,.2-2.43.12-1.67-.09-1.05-.91-2.24-1.53-.46-.24-1.1.13-1.7-.1s-.87-1.12-1.56-1.1a17.87,17.87,0,0,0,0,2.73c.09.62.43.73.37,1.46,0,.36-.5.61-.56,1.14s.84,1.76.5,2.43c-.8,1.62-1.23-.11-1.93-.06,0,2-3,.42-4.57.83C21,22,19.69,22.43,18.7,22c-1.28-.49-1.51-1.34-3.18-1.25a4.52,4.52,0,0,1,0,1.42c-.94-.1-.3.52-.91,1.13A8.23,8.23,0,0,1,12,24.43c-1.19.48-1.57.67-.32,1.64-.79-.06-2.24.63-2.88.26s.09-1.84-1.65-.88c.15-.08-.44.82-.46.84.21-.21-1.4.67-.9.51-.4.13-.27.7-1.37,0,.09.67.91.71,1.09,1.28.32,1-.15.66-.17,1.35,0,.21-.7.57.06,1.18.77-1.19,2.25,1,2.4,1.85.35,2-.67,1-2,1.53-.09.57,1.2.35,1.48.85.63,1.07-.8,1.5-1.17,2.14-.56,1,.73,1.69-1.24,1.05.14.26.06.49.17.73-.77-.22-3.15,0-3.1,1.16a1.87,1.87,0,0,1,1.85.75c1.61,1.52-.09,1.85.41,3.46.18.59,1.5,1.05.95,2.13,0,.06-1.29.59-1.29.59,1.27.69.39,2.28,0,3.28s-.12,1.72-1.5.78a1.29,1.29,0,0,0,.1.44c-.65,0-1.31,0-2,.08a3.37,3.37,0,0,1,.93.79c-3,.21-.64,1.2.69,1.86,1.13.56.82.28,1.28,1.55.3.79.56,2.17,1.64,2.07a1.48,1.48,0,0,1-.45.77,2.25,2.25,0,0,0,.3.95c.15.49.55.78.72,1.19a13.81,13.81,0,0,1,.24,2c.18,1-.45.46,0,1.38.3.57,1,1,1.37,1.56a7.52,7.52,0,0,1,.86,3.72c1.53-.13.44.58.48.83s.15.81.17,1.09c.05.69.5,1.37.3,2.11.21.56.07.85-.4.89a1.49,1.49,0,0,0-.73.39c0,.33,1,.62,1.17.89a7,7,0,0,1,.68,1.84C10.21,79,9.49,80.28,11,81.4,10.09,81.91,11.31,85.86,12.94,85.4Z"/></g></g></svg>