<svg xmlns="http://www.w3.org/2000/svg" viewBox="0 0 37.63 70.62"><defs><style>.cls-1{fill:#8080ff;}</style></defs><title>Asset 18</title><g id="Layer_2" data-name="Layer 2"><g id="OBJECTS"><path class="cls-1" d="M33.65,70.49c.15-.7,1-2,.77-2.95.18.12.73.35.9.25.53-.47-1.32-3.11-.91-4,.51-1.08,1.41-1,.85-2.29-.47-1.12-1.46-1.15-.9-2.44.2-.47,1-.78,1.23-1.58.12-.49-.08-1.2.13-1.68s.71-.67.86-1,1-2.36,1.05-2.51c0-.45-.54-.85-.58-1.35-.69.09-.09.8-1,.59a2,2,0,0,1-1.64-1.27,11,11,0,0,1,.54-2.2c.06-.34.13-.89.18-1.17.19-1.18.93-2,.69-2.87,0-.13-.65-.23-.73-.36a3.8,3.8,0,0,1-.16-1.4c1.48.28,1-2.65.11-3-1.81-.6-2.53,2.31-3.9,2a5.09,5.09,0,0,1-1.67-1.74,6,6,0,0,1,0-4c.24-1.08,1-3.18.14-4.24a5,5,0,0,0-2.92-1.17c.25-.74.27-1.72.51-2.32.05-.13.42.06.53-.3.35-1.08-.22-1.66-1.11-1.94s-2.95.64-3.15-.23a6.48,6.48,0,0,1,1.43-2.24c-.86-1.13-2.84-1-3.88-1.69-.37-.23-.44.1-.68-.2s0-2.25.16-2.8c1,.35,2.89.74,2.9-1,0-.54-.16-.37-.63-.71-.16-.11-.55,0-.73,0-.52-.26-.7-.69-1.17-1-.47.26-1.26-1.37-2.57-.93,0-.51,0-1,0-1.51a5.56,5.56,0,0,1-2.29.35c-1.47-.23-1.26-.91-2.08-1.73-.53-.54-1.11-.38-1.94-.84s-1-1.23-2-1.1C10.31,8,8.28,8.29,7.47,7.23a3.81,3.81,0,0,1,0-1.07c-.06-1.13.07-.62.41-1.62-.3-.08-.52.52-1.13.34-.38-.11-.41-1-1.09-1.06A1.61,1.61,0,0,0,5.81,3c-.35.31-.46.58-1,.36.93.4-1.22-1.41-.65-.52-.05-.08-.28-1.14,0-1-.94-.58-.7.18-1,.14-.67-.11-1.42-.38-.9-1,0-.37-.57-.06-.67,0a5.16,5.16,0,0,0,0-1A2.54,2.54,0,0,1,0,.32C.48,1.64,1.38,2.65,1.79,4c.46,1.52.81,3.08,1.39,4.57A21.91,21.91,0,0,0,4,11.34c.43.68,1,0,1.52.54.09.19,0,.3-.18.34,0,.27,1.3.79,1.51,1-1.47.13,0,1.23.65,1.8,1,.84,1.69.28,2.67.75,1.51.72,0,.84-.16,1.59-.16,1,1.25,1.82.28,1.88.22,1,.76,1.21,1.19,1.85,0,0,1.75,2.19,1.84,1.51-1.23.1-.24,1.17-.08,2.44a.82.82,0,0,1,.91-.16c0,.2-.41.81-.42,1.17a13.36,13.36,0,0,0,.63,2.51,26.89,26.89,0,0,0,1,4.21,5.41,5.41,0,0,1,.34-1.2c.31.46.23,1.06.48,1.39-1.37-.69.06,1.75.34,2,.67.69.81.51,1.52,1.48-.74.06-.54-.71-1-.59.18,1.68,1.59,3.18,1.56,4.92.69-1,.45,1.24.61-.9.29.22.52,1.67.95,1.61-.19,0-.76-.21-.73-.46-.54-.14-.26,1.76-.17,2,.39,1.1,1.7,1.72,2.18,2.72a13.18,13.18,0,0,1,.67,3.47,4,4,0,0,0,.37,1.62c.05.07,1.24-.46,1.05.79-2.83.16-1.81-1.63-2.15-3.14-.13-.53-.56-1.7-.79-2.37-.16-.47-1.12-1.7-1.11-2.1,0,1.29.71,2.58.92,3.86s.13,2.65.43,3.94A31.41,31.41,0,0,0,23.19,59c.09-.19.72-1.08.75,0-.74.33-.57.64-.13,1.34a1,1,0,0,1,1.81-.14c-.31.31-1.57.37-.69.89a5.42,5.42,0,0,1-.57,0c0,.81,2.91,1.27,1.12,1.32-.13,1.47,3.06,4,3.85,5C30.62,69.06,31.31,71.15,33.65,70.49Z"/></g></g></svg>