<svg xmlns="http://www.w3.org/2000/svg" viewBox="0 0 126.78 86.91"><defs><style>.cls-1{fill:#8000ff;}</style></defs><title>Asset 11</title><g id="Layer_2" data-name="Layer 2"><g id="OBJECTS"><path class="cls-1" d="M9.15,74.28c.21,1.14,0,2.48.88,3.4s1.63.41,2.76.31c2.29-.18,3.36.11,4.47,2,.95,1.64,1.61,1.93,3.59,2s4,0,6.07-.14a6.29,6.29,0,0,1,4.28,1c.95.73.69,1.81,1,2.9s-.26,1,1.35,1a8.59,8.59,0,0,0,2.15,0c.26-.24-.21-1,0-1.23.46-.36,1.55.14,2.17-.28.83-.57.72-.88-.34-1,.73-1.41,3.34-2.29,2.65-4,.91,0,.73-.78,1.16-1.06a7.28,7.28,0,0,1,4.55-.68c1.17.12.74,0,1.47-.45s1.19-1.12,2.4-1c2,.27,2.17,2.53,3.35,3.88a1.73,1.73,0,0,0-1.32,1c.48,0,.43.46.75.65s.61,0,1,.1A8.29,8.29,0,0,0,58.61,82c.53.16.81,0,.87-.47a1.77,1.77,0,0,1,.71-1c1-.62,1.51.42,2.3.21.56-.15.89-1.27,1.67-.86s-.58,1.43.54,1.6c-.34-.05,1.09-.5,1.07-.5.5,0,.88.66,1.29.85a3.52,3.52,0,0,0,2.74.29c1.14-.27.87-.07,1.27-.78s-.29-.91.1-1.23,2.22.36,2.65.42c.06-.88.17-.07,1-.73,1-.81.12-1.25,1.65-.89l.44.73a1.26,1.26,0,0,0,1,.22c1.65.61,1.34,1.31,3.13,1.21a7.74,7.74,0,0,1,2.63,0,11.87,11.87,0,0,0,2.22.67c1.78.15,2.54-1.16,4-1.14a8.52,8.52,0,0,1,1.2.53c1.15.6,1.21,1.31,2.2,2.33s.87.66,1.91.65c.6,0,1-.5,1.24,0,.32-.71,1.08-.78,1.36-1.95s-.18-2.5-.22-3.71a1.3,1.3,0,0,0,1.73-1.06c.12-.59-.4-1.15-.41-1.73,0-1.1.18-.7.47-1.49,0-.07.5-.2.6-.43s-.24-1.11,0-1.39c.4-.43,1.28.19,1.82.22,0-.85-.29-1.13-.08-2,.09-.38.33-.72.42-1.11a3.35,3.35,0,0,0,1,.17c.12-3.07-.56-2.5,2.31-3,.31-.06.66-.36.95-.38s1,.3,1.34.25a18.49,18.49,0,0,0,2.18-1.17A11.87,11.87,0,0,0,111,64c.24-.24.71-.21.92-.51s0-.81.18-1.18c.32-.66.92-.92,1.26-1.54.22-.4.1-1,.29-1.38.3-.64,1.07-.79.85-1.61,1.58-.07,3,.15,3-1.82a3.42,3.42,0,0,0-1.26-2.53c-.36-.33-1.13-.54-1.34-.76-.42-.42-.43-.7-.85-.93,0,0-1.22-.48-1.41-.51-1-.2-1.46.59-2.36.15a1.66,1.66,0,0,1-.66-2c.27-.65,1.71-1.08,1.58-1.88s-1.38-.47-1.52-1.26c-.19-1.05,1.26-1.32,2-1.16.49.1.5.93.75,1A3.47,3.47,0,0,0,114,46a14.65,14.65,0,0,1,4.63.3c.51.12,4.18.31,4.27,1.27,0-.19.07-.91.29-1,0,0,1-.23.94-.15.12-.11.39-.52.48-.6l.18-.76a1.17,1.17,0,0,1,1-.41c1.51-1.41-.35-1.54-.59-3-.08-.48,1-1.33,1.2-2a4.71,4.71,0,0,0,.12-.54c.06-.2.11-.41.17-.61.14-.43,0-.62-.48-.56a4.23,4.23,0,0,1-.31-1.29,1.31,1.31,0,0,0-.43.06,13.77,13.77,0,0,1,0-2c1.66.94,1.4-.28.45-1.06-.56-.45-.27-.54-1.23-.48s-2.17.3-3.33.29c.08,2.29-.2.67-1.62.87.31-1.34-.69-.58-1-1.18-.11-.27.15-.89,0-1.12-.34-.45-.79-.06-1.39-.26-.39-.12-.26-.23-.28-.8-2.28.1-2.85-.09-2.78-2.44-.58,0-1.23.21-1.8-.05-.27-.12-.67-.93-.74-1-.39-.13-1.47.24-1.74,0-.45-.41.57-1.62.05-2.17-.92-1-1.32,1-1.26,1.59a1.47,1.47,0,0,1-1.77-1.09c-.54,0-.79.42-.92.87-.06-.24-.25-1-.94-.68.6,1.15-.81,1.95-.08,3.12-1.25.08-2.56-.06-3.77,0-.68.05-1.78.64-2.58.34a4.91,4.91,0,0,0,.7-2.78c-.1.26-.28.48-.38.74.12-.78-.08-1.39-.91-1.25.3.41.09.28,0,.79-.39,0-.71.23-1,.11a7.77,7.77,0,0,1-1-.86,6.52,6.52,0,0,0-.43,1c-.14-.32-.2-.87-.69-.66.18.57.22,2.68-1,2-.39-.23.19-1.19-.13-1.41-.83-.6-.94.31-1.09.36-.57.21-.87.66-1.47.59,0-.84.81-.77,1.11-1.31a5.85,5.85,0,0,1,.19-1.23c.51-1.09,1.07-.46,0-1.81-.61-.81-1.13-.55-1.23-1.77-.64.12-1.31.3-1.31,1a4.15,4.15,0,0,0-1.44-.29c.25,1.36-1.32,1.22-2,1.64-.28.17-.28-.26-.47-.11-.57.47.16,1.28-.19,1.73s-1,.33-1.83.36a7.47,7.47,0,0,1-1.95,0c-.26-.07-.18-.6-.34-.79-.3-.36-.28.65-.27.78-1.08.05-1.67-.32-1.94,1.08-3-.14.44-2.62.53-3.26-1.16,0-1.37-.66-2.3-1.19.16.78,1,2.24.21,2.86a31.28,31.28,0,0,1-3.67.16,3.57,3.57,0,0,0-.34-1.59c-.69-.12-.85.81-1.38.77-1.05-.08,0-.26-.57-1-.15-.2-.84-.31-.88-.53-.23-1.11.5-1.7,1.54-1.81-.48-1.28-.07-1.28,0-2.32-.76.29-1.55,1.1-1.33,2-1.09-.3-1.15,1.61-2.53.85-.48-.26.36-.82-.56-.93s-.9,1.2-1.45,1.54c1.16.09,1.07.84,1.46,1.68,0,.33.05.65.08,1l.53.17a6,6,0,0,1,.32,1.73c.06.62-.08,1.06.25,1.6.19.32.87.07,1,.35.63,1.25,0,2.62,0,4,1,0,1.55-.52,2.11-.08a2.43,2.43,0,0,1,.53,2.32c-.11,0-.47-.12-.52,0a4.69,4.69,0,0,1,1.54,1.5c-.9.39-.47,1.26-.92,1.7a11.29,11.29,0,0,1-2.67,1.45c.12-.56-.1-1-.81-.88a1.46,1.46,0,0,0,0,.72c-1,0-1.1-.75-1.62-1.32-.28-.31-.15-.66-.48-1s-1,.06-1.42-.51c-.45.46-.29,2.8-1.86,1.56-.37-.29-.08-.7-.13-1.32s.22-1-.23-1.46c-.24-.27-.81-.1-1-.31-1.2-1.46-.07-.9,0-2.09C63.4,32,61.7,30.5,61.92,29c1.85.17,2.25-1.67,2.3-3.12.41-.05.53.07.74-.41s.51-.17.44-.8-.66-.39-.87-.83c-.7-1.41-.53-3.45,1.13-3.44,0-2.3,1-1.49,2.7-1.83.76-.15,2.7-.62,2.8-1.24,0-.27-.57-.93-.58-1.33,0,.13.42-1.19.27-.82.09-.43.32-.61.71-.53.25-.54.47-1.08.69-1.63.15-.29.43-.55.6-.88.52-1,.71-2.15,1.13-2.95.64-1.23,1.41-1.81,1-3.5A21.17,21.17,0,0,0,73.94,3.4c-.24-.68.17-.9-.31-1.41-.17-.17-1.32-.87-1.52-1a3,3,0,0,0-1.74-.8c-.27,1.94-7.48-2.66-7.85,2,0,.27-1,.35-1.77.37a4.45,4.45,0,0,0-2.7.55c-.3.2-.16.75-.37.93-.48.41.29-.35-1,.42a63.73,63.73,0,0,1-5.9,3.13,14,14,0,0,0-2.75,2c-1,.7-2.13.59-3.11,1.4a13.37,13.37,0,0,0-1.64,2.18c-.78,1-1.22.88-2.28,1.43-1.29.67-.41.14-1.09,1.1,0,0-.73,1-.72,1-.09.83.77,1.93,1,2.7.64,2.17,1.24,2.66,3.6,2.93,1.78.21,3.49-.58,5.06.09.22-.74,1.34-2.29,2.25-1.48.49.43-.59,1.82.7,1.55,0,.66.45,3.15,0,3.77-.26.35-1.5.34-2.09.44a2,2,0,0,0,0-.77,6.42,6.42,0,0,1-2.57.93c-.55.06-2.41-.3-2.71.08-.89,1.13,2.56,3.47-.82,3.47.77,1.82,3.32.42,3.47,3,0,.75-.23,2-1,2.26-1,.35-1.36-.79-2.22-.82.19,1,0,2,.22,3,0,.21.67,1.47.67,1.48A2,2,0,0,1,43.48,41c-.66.28-.35.35-1.38-.18,0-.51-.24-.72-.82-.64a1.94,1.94,0,0,0-.75-.16c-.23-.12-.14-.65-.15-1-.84-.19-1.07.25-.75,1a16.06,16.06,0,0,0-5.18-1.16c-1.72.19-.82,1-1.77,2.23-.63.84-.87.76-1.81,1.07.31,1.22.59,1.88-.69,2.21-.52.14-1.24-.15-1.78-.05-1.44.27-.79.48-1.35,1.81-.42-.25-.71-.68-1.1-.93s-1.42-.56-1.49-.63c-.32-.31-.3-.53-.33-1.24-.08-1.77.27-1.91,1.7-1.77a4.15,4.15,0,0,0,3.41-.68c-1.8-.15-.62-2.46-.83-3.42-.07-.31-.64-.26-.67-1.06a1.66,1.66,0,0,1,1.11-1.5c.26-.1.75.79,1.12.4a3.12,3.12,0,0,0,.11-1.62c-.17-.22-1.06,0-1.31-.28s0-2.09,0-2.38c-1.1,0-1.52.57-2.41.93-1.46.6-.7-.12-1.32-.26-.83-.19-2.45-.13-3.39-.42-.33-.11-.94,0-1.21-.34-.87-1.07.4-1.1.7-1.71.16-.33,0-.81.17-1.2.33-.63.78-.37.68-1.25-.14-1.18-1.63-1.17-2.36-.21-.62.81.09,1.64-1.3,2.1-1.78.58-1.73-1-2.72-1.7-.52,1.26,2.71,3.7,1.86,4.53C17,31.94,15,30.37,15,30a.5.5,0,0,0-.3,0c-.23.29.46,1,.42,1.36-.12,1-.27.29-.67,1s-.59-.2-.59.88c0,1.48-.07.06.67.87.53.58.7.71.75,1.09a3.93,3.93,0,0,1-.89,2.38c2,0,1.9-.39,2.24,1.39.17.91.84,1.78.62,2.73s-1,1.36-1,2.49c-.13,1.8.5,3.39-1.26,4.59a16.19,16.19,0,0,1-2.82,1.06c-1.79.78-.42.71-1.32,2,1.74.61,3.09,1.53,1.05,2.65a22.8,22.8,0,0,1-2.68,1.23c-.09,0-.1.12-.22.15a7.77,7.77,0,0,0-1.43.11C6.59,55.71,6,53.32,5,54.9A7.34,7.34,0,0,0,4.92,57c.18,1.2.24.83,1,1.39.55.39.63-.3,1.18.53.28.44,0,1.32-.15,1.75a5.21,5.21,0,0,1-1.3,1.7c-.57.43-1,.28-1.57.55s-.55.63-1.18,1.11c-.89.66-1.34.41-2.35.45-.06,1,4.7,1,3,2.86-.35.39-3.54-.49-3.6.93,0,.4,1.17,1.39,1.28,2,.15,1-.51,1.31-.28,2.37.39,1.75,1.26.67,2.2.76.59.06,1.39.61,2,.57,1-.08.57-.61,1.17-.85,1.75-.72,1.14.45,2.57.92a.26.26,0,0,0-.29.28Z"/></g></g></svg>