<svg xmlns="http://www.w3.org/2000/svg" viewBox="0 0 119.82 95.17"><defs><style>.cls-1{fill:#80ff00;}</style></defs><title>Asset 10</title><g id="Layer_2" data-name="Layer 2"><g id="OBJECTS"><path class="cls-1" d="M10.83,93.6c-1.37,0-1.2-.13-1.74-1.44-.41-1-1.1-1.74-1.53-2.64a1.48,1.48,0,0,1-.84-.89,1.48,1.48,0,0,0,.71-1.11c0-.09-.49-1.61-.54-1.86a41,41,0,0,1-1.1-5.55c-.12-1.54.62-3.91-.45-5.25.43.12.67,0,.71-.47-1-.08-.37-.61-.46-1.31a5.8,5.8,0,0,0-.19-.68c0,.4,0-1.63.28-.81-.19-.63-.5-.77-.76-1.34-.43-1,1.78-1-.42-1.16.71-.79.3-1.74.21-2.63-.15-1.45-.52-.75.44-1.7-1.07-.9-.47.79-.93-1.11-.25-1,0-1.44-.38-2.5-.29-.7-1.53-2-.12-2.47C2.61,59,3.11,57,2.28,57c.29-.71.43-1,.26-1.59s-.94.13-.72-1.06c.48,0,1.64-.3,1.75.46a6.05,6.05,0,0,1,.08-1.2c-.58-.11-.66.5-1.47.43a1.56,1.56,0,0,0,.17-1.17l-.62-.22a9.63,9.63,0,0,1,0-1.2c0-1.71.23-.7,1-.91-.63-.67-1.87-2.78-1.65-3.73.5-2.12,1.6.1,2.79-1-1.14-.58-2.44-.78-1.45-2.21.34-.49,1-.47,1.2-.71.62-.77-.09-1.17.05-2.17-.67-.1-.22,1.17-.4,1.37-.38.39-1,0-1.33.38S1.72,44.57.84,43.9c-.46-.36.2-.9.21-1.16s.09-.78.09-1c0-.64-.51-1.52-.41-2.12.29-1.72.8-.61,2.09-1.44C1.58,38,.41,38.14.61,36.49c.16-1.26.94-.66,1.65-1.56-1-.43-1.19-1.49-1.3.24-1.7.16-.47-1.32-.54-2.38,0-.71-.36-.22-.41-1.19,0-.78.09-1.41.86-1.52-.71.12-1.13-3.66.66-1.12.17-1.28-2.06-2.34,0-2.92.39-.11.92.28,1.36.1.25-.11-.07-.7.23-.77a.66.66,0,0,1,.5-.24c.81-.28,1.08,0,.8.89.44.53.39,1,1.1,1.45a3.42,3.42,0,0,0,2.83.08q0-.56,0-1.11a1.41,1.41,0,0,1,.46,0c.16-.14,1.31-.39,1.56-.54,1.14-.73.43.47.84-1.52.2-1,.54-1.64.72-2.66.12-.69.51-1,.46-1.8-.06-1-.6-1.21-.31-2.15a20,20,0,0,0,2,1.21c.14.13.15.82.23.89.34.3,1.08.45,1.52,1.06.11-1.75,2.83-.33,1.92-2.74,1.41-.38,1.52.12,1.83-1.12a4.32,4.32,0,0,0-1-3.29A7.21,7.21,0,0,0,17,12.3,12.94,12.94,0,0,1,15.19,12c1.17,0,2.68-.09,3.43-1.06.45-.58-.05-.88.64-1.36.53-.37,1.39-.07,2-.34.11-.05,0-.65.14-.75a17.89,17.89,0,0,1,1.71-.94,16.41,16.41,0,0,1,2.23-.07,4.78,4.78,0,0,1,1.56-.12A6.07,6.07,0,0,0,23.53,5.5c-1.23-.16-2.92,1.08-3.68.66-1.14-.65-.09-1.73,0-2.23a4.69,4.69,0,0,0,0-1.4c0-.19-.89-.07-.92-.35C20.7,2.27,21.59.48,23.52.5c.46,0,.83.41,1.27.46,1.37.14.68-.21,1.8-.68.83-.35.68-.53,1.5.41s.46,2.14,1.18,3.3c1,1.65,2,1.18,3.65,1,1.38-.12,2.53-.15,3.48.9.7.78.74,2.25,1.82,2.75,1.4.65,3.77.18,5.29.4,2.41.35,4.55-.88,6.54.52,1.23.86,1.4.68,1.56,2.52,0,.35-.31.69-.21.88.6,1.18,5.18,1.58,4.84-.38.86,0,2.73-.08,2.82-1.14,0-.29-.62-1.31-.67-1.07.1-.55.69-.6,1-.87l.27-.25c1.23-1,1.29-2.36,2.56-3.11.74-.43,3.95-1.94,3.25.11.59-1,1.13-.2,1.87-.64,1-.57.35-1.34,1.84-1.5,1-.1,3.18,1.39,2.71,2.54-.3.73-2,.29-2.52.32.4,1.07.54,2.95,2,3-.4-1.61.53-.48.85-.47,1.54.09,3,.55,4.64,0a12.28,12.28,0,0,0,3-1c1.06-1,.31-1.17,1.93-1.22.9,0,1.3.66,1.86-.53,0,0-.07,1.06.06,1.11a.57.57,0,0,0,.56.51.6.6,0,0,0,.83-.21c13.2,2.19-13.76-3.54.9-.23.35.08.88.77,1.23.92.75.32,3.49.43,4.18-.12.47-.38.21-.94.21-1.83,1,.05,2,.47,3,.48-.63-.93.36-.39.64-.78s0-1.06.51-1.2a15.19,15.19,0,0,0,1.76,1.25c.35.14.74-.07,1.09.12s.19.6.41.73c.9.57,1.33.41,2.48.29,2-.22,3.58,1.08,5.68.69,1-.18,1.84-1,2.36-1a4,4,0,0,1,2.11.86c.59.56.79,1.61,1.46,2.16s1.88.34,2.58.82c1.6,1.1-.26,1.66-1.34,2.44-.19-.88-1.16-.49-1.38-.19,0,0,.25,2.52.28,2.6.34,1,.79.61,1.21,1.21,1.41,2-.48,2.44-.22,4.56.13,1.11.24.66,1.47.4,0,.8.14,2.57-.22,3.27s-1.18.8-1.75,1.13a2.39,2.39,0,0,0-1,2.69,1.38,1.38,0,0,1,2,.42,3.89,3.89,0,0,1,0,1.23c-.28.71-.45.26-.79.67-.06.07-.56-.09-.64,0-.29.35.24.9.18,1.17-.12.61-.69,1.3-.16,2,2.14-1.11,2-.43,3,1.32a6,6,0,0,0,1.5,1.83c.57.24,1.7-.19,2,.6a12.54,12.54,0,0,0-.36,1.7c-.61,1.51-1.86,1.69-3.35.81-1-.62-.61-.89-1.66-.39-.6.29-1,1.06-1.55,1.46-.66.51-.51-.15-.87.29-.49.61-.24,1-.49,1.6s-.71.71-.79,1.63a2.77,2.77,0,0,0,.21,1.27c.08.16,1.06.94,1.07,1,0,.64-3.18,1.63-1.5,2.54-1.2.47-3.55-.11-4.09-1.41,1-.4.11-2.32-.27-3.17-.22-.49-.8-.1-.86-.72,0-.44.82-1.13,1-1.51a13.22,13.22,0,0,0,.48-2.89c.26-2.33-.59-2-2.12-3.16-1-.76-1.43-1.37-2.83-1-1.77.43-.12-.59-1.25.72-.58-1.66-1.32.64-1.22.63-.55,0-.79-.6-.64-1.16-.65.16-.7.12-.62-.47-.62,0-1.54.17-1.77-.54.17.52-.32-.27-.37-.25-.64.17-1.11,1.68-.82,2.37-1.58-.9-1.85-.56-3.67-.5,0-.71,1.13-1.5.79-2.09-.23-.39-1.62-.06-2,0-.08-2.57,0-2.24-2.72-2.44-.47,0-1.12.08-1.56,0a2.59,2.59,0,0,1-1.48-.51,6.54,6.54,0,0,1-2.09-1.43c-.13.3-.85.76-.87.84-.15.68.94,1.11,1,1.66s-.81,1-1,1.64a8.24,8.24,0,0,1,.2,1.18c.2,2.08-.69,2.06-2.32,2.68s-.42.79.4,2c-.8.8-1.66-.2-2.13-.53s0-.64-.3-.77c-1.21-.59-1.63.58-1.85,1.31a10,10,0,0,1-.88,2.24c-.65,1.05-1,.53-.39,1.77.41.86.78,1.8,1.67,1.86,0,.57-1.79,1.56-2.18,2.18s-.68,2.15-.9,2.3-1.47,0-1.89.06c-.12,0,.16.79-.77.47a12.14,12.14,0,0,1,.48,2.4c-.21,1.43-.68.13-1.71.3-.63.1-.45.25-1,.74s-1.56,1.94-2.36,2.29c-1.13.48-3.24-.6-3.67,1.5,1.62.17.09,1,0,1.2-.34.68.19.81-.6,1.29s-1.63.43-1.47-.49c-1.43-.31-.88,1.56-.17,2.14-.39.73-1.29.57-1.44,1.63-.78-.7-.5-1.27-2.06-1-1.25.18-1.7,1.16-1.88,2.28-.74.76-1.31-1-1.87.4a15.08,15.08,0,0,0,0,1.91c0,.75.85,1.54.56,2-1.23-1-2.81-.82-4.22-1.38,0,0-1.54.63-2.38.1s-.58-1-1.76-1.29a2.64,2.64,0,0,1-.75.08c-.59-.16-.35-.53-.9-.78-1.71-.78-1.33-.46-1.57.8-.21,1.1.29,1.91.28,2.85s-.53.91-.44,2.1a11.34,11.34,0,0,1,.31,1.38c0,1.83-.06.27-1,.17s-.82.12-.82.92c-1.14,0-3.48-.73-4.51.05-.27.21.22,1,.05,1.06-1.05.61-1.35-.29-2.16-.75-1.21-.68-2.72-.45-4-.32,1.55.25.85,1.3.43,1.85-.73,1-.48.81-1.66,1.27-.59.22-3.3,1-2.42,2.11a9.59,9.59,0,0,1-1,.2,1.36,1.36,0,0,0-2.71,0c-.71.07-1.32,0-1.37,1-.37-.12-1.06-.88-1.37-.4-.61,1,1.18,1.72,1.36,2.41.08.32-1.33,1.22-.34,2.16s1.17-.69,2.06,1c1.2,2.25-2.36.76-1.69,2.5s2.06-.4.75,2c-.37.68-.48-.05-.5,1.29-1.87-.27-1.85.32-3.68,1.36-.91.52-.41,1.15-1.84.46-.44-.21-.75-.58-1.11-.76A6.16,6.16,0,0,0,10.83,93.6ZM72.2,7.18,72,6.88C71.94,7.16,71.91,7.33,72.2,7.18Z"/></g></g></svg>