<svg xmlns="http://www.w3.org/2000/svg" viewBox="0 0 23.53 28.7"><defs><style>.cls-1{fill:purple;}</style></defs><title>Asset 29</title><g id="Layer_2" data-name="Layer 2"><g id="OBJECTS"><path class="cls-1" d="M4.64,8.21c-1,.72-.9,2.14-1.3,3.22-.25.7-.29,2.43-.75,3.2s-.79.23-1.26.7S1.05,16.65,1,17.44.7,21.38,0,21.73c1.12.44.57,1.06.93,1.84s.06.4,1,.89c1.21.62,2.56.71,3.65,1.42.41.27.53.82,1.17,1.07s3.11.36,3.15-1c.63.21,1,1.2,1.64,1.31,1,.17.46-.56,1.27-.6a8,8,0,0,1,2.33.66c.18.13.71,1.51,1.22,1.37.92-.24,1.14-4.1,1.26-4.73a24.15,24.15,0,0,1,1.66-5.19,39.8,39.8,0,0,1,2-4.08c1-1.74,2.32-3.11,2.18-5.24-.16-2.62-1.34-.31-2.59-1.92-.55-.69,0-3.7.7-4.11-1.5-.63-1.27-2.1-1.24-3.42C18.2,0,19.1,2.21,17.56,2.9S13.68,2.81,12,3c-1.3.11-1,0-1.54,1.1A17.52,17.52,0,0,1,8.89,7c-.58.76-.8,1.09-1.75,1.19S5.31,7.47,4.64,8.21Z"/></g></g></svg>