<svg xmlns="http://www.w3.org/2000/svg" viewBox="0 0 41.49 14.3"><defs><style>.cls-1{fill:#ff8000;}</style></defs><title>Asset 26</title><g id="Layer_2" data-name="Layer 2"><g id="OBJECTS"><path class="cls-1" d="M38,12.41c.93-.34,3.81-2,3.44-3-.2-.53-1.7-.82-2.08-1.39s0-1.33-.29-2a4.6,4.6,0,0,0-2.71-1.83c-1.22-.08-2.3,1-3.61,1-.06-1.59,1.06-3.61-.91-3.94.23-.35.35-.78.56-1.14-.54,0-1.1.3-1.52.33A9.27,9.27,0,0,1,28.3,0c.16,1.21-1,3-1.46,4.16-.5-1.35-.55-3.74-2.16-2.37.14-.07,1.14,1.22,1.21,1.3-1.47.43-2.64.42-3.5,1.44l-.92,1.16A1.74,1.74,0,0,1,19.1,4.28C18,5.49,17.55,3.71,17,3.41a7,7,0,0,0-3.22-.51c-2.23.16-4.48-.82-6.61-.14-.74.24-1.25.86-2.22,1-.46.06-1.15-.16-1.57,0a2.08,2.08,0,0,0-1,1.5c0,1.12,1.39,2.19.25,3.33C2.12,9,.4,9.2,0,8.61c0,1-.18,3,.91,3.51.82.41,2.15,0,3.12.3a16.7,16.7,0,0,0,7.48,1.19c1.67-.15,3.31-.16,5-.27,1.38-.08,2.64.23,4,.12a11.47,11.47,0,0,1,3,.12c.6.07,2.61.53,2.82-.27-.29,1.19,5.51-.46,5.91-.47a4.12,4.12,0,0,1,1.67.25c.49.21.85.92,1.23,1.06,1.39.51,1.7-.41,2.55-1.05l-.52-.37A6,6,0,0,1,38,12.41Z"/></g></g></svg>