<svg xmlns="http://www.w3.org/2000/svg" viewBox="0 0 17.37 37.12"><defs><style>.cls-1{fill:gray;}</style></defs><title>Asset 28</title><g id="Layer_2" data-name="Layer 2"><g id="OBJECTS"><path class="cls-1" d="M8,.29c-1.2.87-1.35.57-2.1-.29C5.7.79,5.31.94,4.72,1.42c-.08,0,.16,1.14.1,1.25s-.69,0-.78.1A7.59,7.59,0,0,1,3.4,3.93a2.53,2.53,0,0,1-2.21.83C.45,4.5.65,4.18.66,3.18-.7,3.36.43,4.6.62,5.62A11.91,11.91,0,0,1,.89,9.71c-.19,1.46.24,2.11.47,3.5.12.69-.23,1.15,0,1.84.43,1.08.82.64,1,2,.17,1.72-.24,3.12.29,4.81s1.38,2.8,2,4.32A24.39,24.39,0,0,1,6.13,30.4c.3,1.58-.25,4,.93,5.32,1.68,1.87,0-3.25,2.35-.83.67.69,1.24,3,2.68,2,.63-.45.85-2.39,1.31-2.9.73-.82,1.18-.24,1.83-.9a5.81,5.81,0,0,0,.39-2.44c-.11-.89-.88-1.5-1.22-2.42-.54-1.42-.31-3.57-.27-5.05-.77.39-1.52-1.14-1.1-1.67.21-.27,1.71.1,2.12,0,1.71-.48,2-3.29,2.16-5a16.73,16.73,0,0,0-.86-7c-.2-.6-2.59-4.95-2-5.31-.84-.16-3.79-.72-4.17-1.3S10.66,1.35,9.8.59C9.42.26,8.41,0,8,.29Z"/></g></g></svg>