<svg xmlns="http://www.w3.org/2000/svg" viewBox="0 0 91.18 73.48"><defs><style>.cls-1{fill:#ff80ff;}</style></defs><title>Asset 16</title><g id="Layer_2" data-name="Layer 2"><g id="OBJECTS"><path class="cls-1" d="M91.17,13.13c-.16,2.36-2.34,1.21-3.81,1.46a8.94,8.94,0,0,0-5.63,4.65c-.89,2.31.73,3.93,1.43,5.94.88,2.55-2.11.74-2.18,3.34.64-.46,2.92-1.77,3.66-1.61a6.82,6.82,0,0,1-2.74,3.17c-.89.61-2.39,1.14-2.11,2.53,1.37,0,.95,1.29.09,2-.71.61-1.9.71-2.68,1.22-1.69,1.12-1.73,2.79-3.16,4-1.9,1.68-5,1.68-7.22,2.66a40.32,40.32,0,0,1-4.17,1.8c-.6.19-2.11,1.22-2.54,1.18C60,44,61,44.44,62,43.62c1.53-1.2,1-2.71-.85-2.26a9.09,9.09,0,0,0-3.43,2.36c-.79,1-.31,2.42-1.42,3,1.61,0,1.49-2.34,2.82-1.91-.27.37-.9.48-1,1,3.34-1,.52.91-.67,1.92a19.06,19.06,0,0,0-2.56,2.1c-.69.85-1,1.93-1.58,2.79-.19.27-1.37,1.58-1.55,1.53-.6-.18.13-1.1-.22-1.41-.9-.79-3.11,1.08-1.51,1.47,0-.36-2.12.59-2.25.65.1,0-.88.61-.79.48a.5.5,0,0,0-.53.22A1.78,1.78,0,0,0,47,56.72a3.68,3.68,0,0,1-3.66,1.82c-.72-.17-1.24-.65-2-.78a11.47,11.47,0,0,1-1.18,0c-1.25-.42-.76-.78-1.63-2-1.13-1.61-1.15-.09-2.16-1.32-.59-.71,0-1.76-1.34-1.69,0,.34.1,1.74-.24,1.87s-.31-.68-.76.05c-.38-.94-.4-.4-.73-.86a6.59,6.59,0,0,0-.51,2c-.47-.56-1.2-1-1.84-.32-1.11,1.13.51.74.56,1.41.13,2-2.1,1.25-3.31,1.86-.93.45-.2.64-.64,1.47-.34.62-1.3-.13-1.24,1.34,0,.69,1.2,1.32,1.22,1.55-1,0-.62,1.51-1.42,2-1.35.73-1.33-1.49-2.86-1-.57.19.12.69-.27,1.08-.16.15-2.28,1.69-2.28,1.69s.29-1.29.22-1.61c-.14-.67-.39-.65-.63-1-.38-.54-.79-1.8-1.73-1.64.46-.08-1.94,1.75-1.8,1.53a3.33,3.33,0,0,0,.3,2.3,1.13,1.13,0,0,0,0,2.15c0,.29-.44.64-.41,1.12-1,0-.68,1.15-1.14,1.26s-.91-.94-1.48-1.17c-1-.43-1.59.23-2.35.67a18,18,0,0,1-1.78.69c-.8.39-.59.81-1.13,1.19a5.75,5.75,0,0,1-2.34.49c-1,.15-2.2.3-3.33.43a10.2,10.2,0,0,1-1.52.24C1,73.44.69,72.86,0,73c.84-.52,1.56-.45,2.37-1.09a5.7,5.7,0,0,0,1.69-2.05c.7-1.65.15-3,2.09-3.94.57-.27,1.16-.06,1.72-.4,1-.58.81-2.36,1.69-2.91.7-.44,3.16-.51.91-2.27a5.76,5.76,0,0,0,1.41-.28c-.12.05.68-.7.6-.65.25-.18.63-.13.88-.39.51-.51.15-1.21.5-1.7.05-.06.45-.59.44-.56s.58,0,.61,0-.05-.52,0-.69c.42-.95-.34-2.89-.51-3.86s.06-2.14-.18-3a2.62,2.62,0,0,0-2.19-2.22c0-1.39,1.47-3,.5-4.33-.46-.62-1.4-.14-1.39-1.21-1.6.63-1.89-1.11-1-2.3.5-.7-.37-.66.75-.63.6,0,.52.27.45.69,1.32.09,4-.37,4.71.85.33.57-.46,2.08.72,2.25.46.07.59-.27.68-.29s.32-.72,1.2-.78c1.91-.13.62.76,1.33,1.61.47.58,1.65,0,2-.73a3.51,3.51,0,0,0,0-2c-.51-1-.75-.61-1.79-.63-2.5,0-2.71-.79-2.37-3a11.69,11.69,0,0,0,.46-2.86c-.12-1.05-.65-1-1.08-1.75-.86-1.46-.43-4.57-.33-6.37,1,.1.91,2.14,2.4.48,1-1.07.66-3.19,1.43-4.11.63-.75,3.18-.3,4.38-.28.68,0,3,.75,3.42.56,1.42-.6.27-3,2-3.51.59-.19,1.43.38,1.72-.2s-.58-1-.66-1.4a3.81,3.81,0,0,1,.08-1.71c.2-.71.8-1,1-1.34A9.21,9.21,0,0,0,33,12.57c-.07.19.72-1.31.47-.92.18-.27,1.73-1.26,1.77-1.47.12-.68-1.31-1.26-1.24-2,.09-1,.48-.37.85-1s.13-.82.57-1.37A15.27,15.27,0,0,1,39.3,3.2c1.57-.88,1.92-.86,1.71-2.86,1.2,0,1.63,1.75,2.66,2.26,2,1,2.87.26,4.65-.37,1.31-.46,2.66-.17,4-.38C53.57,1.67,55.05.46,56.13.47c.08,1.38.25,3.32-.24,4.39-.28.62-.87,1-1.13,1.68,1.21,0,2.27.93,3.44.88,1.71-.08,2.06-1.87,3.9-1.83,1.3,0,2.4.94,3.65,1.12.7.09.79-.55,1.12,0,.12.19-.53.82-.72,1,.62.15,2.09.78,2.62.38.32-.24.21-1.19.38-1.52s.78-.34.8-.39c.3-.77-.38-1.53-.36-2.42,0-.45.46-.89.4-1.57A6.19,6.19,0,0,0,69,0a3.11,3.11,0,0,1,1.68.28,8.58,8.58,0,0,0,1.52.27c1.43.09,3.2,1.07,3.15,2.78,1.16.14,1.09-.85,1.81-.94A1.72,1.72,0,0,1,79,4.52c1.21-.29,1,.61,1.8,1.14.91.62,2.24,0,2.74,1.21.42,1-.64,2.53,1.14,2.9.63.13,1.7-1.12,1.91-1.64.82.09.58,1.47.93,1.92.48.63,1.36.69,2,1C90.46,11.52,91.25,12,91.17,13.13ZM9.35,72.55c.45-.17.52-.35.51-.86C9.37,71.72,9.38,72.12,9.35,72.55Z"/></g></g></svg>