<svg xmlns="http://www.w3.org/2000/svg" viewBox="0 0 40.24 45.4"><defs><style>.cls-1{fill:blue;}</style></defs><title>Asset 7</title><g id="Layer_2" data-name="Layer 2"><g id="OBJECTS"><path class="cls-1" d="M.57,35.83c.81,1.71-.83,1.49,1.75,1.64a42.78,42.78,0,0,1,5.07.61c1.08.21,1.57.72,2.57.47.29-.07.39-.49.81-.59a4.74,4.74,0,0,1,2.7.41c.47.23,1.2,1.47,1.58,1.53.54,0,.35-1.44,1.3-.48.33.35-.41,1.75.14,1.95s.43-1.42,1.19-.12c.62,1-.92,1.59-.86,2.37a5.17,5.17,0,0,0,1.47,1.77c-.57.18,1.36-2.62,1.44-2.72.83-1,.78-1.16,2.11-1.09a7.92,7.92,0,0,0,2.13.1c.77-.16,1.11-1,2.22-.38.67.33,1.49,1.71,2.5,1.26.42-.19.58-1,.68-1.54a3,3,0,0,0,.38.6c.18-.77,1.06-.24,1.25-.8a12.69,12.69,0,0,1-.49-1.4,11.84,11.84,0,0,1,.72-3.81,13.39,13.39,0,0,1,2,.76c.58-.59.24-1.94,1.47-.62.9,1-.2,1.53,1,.83,1.75-1.06-.31-1.09-.17-2.06,0,0,.85-.69.94-.75.55-.4.89-.11,1.14-.77s-.6-.43-.43-1c.43-1.39,2.39-.78,2.85.36.08-.81.39-2.88.05-3.61s-.94-.67-1.51-.93c-.34-.15-.64-.46-.53-.25-.22-.43-.26-.32-.17-.67l-.25.12c-.26-1.09-.54-2,1.2-1.81-.15-1.33-1.1-1.57-2-2.18-1.54-1-.89-1.7-.94-3.11a3,3,0,0,0-.55-1.55c-.59-.44-1-.14-1.62-.85-.37-.43-.5-1-1-1.43-.26,1-1.27,2.22-2.54,1.38-.58-.38-.11-1.36-.32-2.14-.29-1.08-4.29-4.88-2.08-5.5A6,6,0,0,0,25,7.08c-.82-.32-1.79-.2-2.51-.73.28-.41,1.05-.49,1.21-.81s-.35-1.06-.16-1.48c.39-.84,1.28-.36,1.79-.8.93-.81.1-1.51,1.82-1.75A12.75,12.75,0,0,0,26.08,0c-.14.3-.15.9-.53,1s-1,0-1.32.13-.6.53-.88.65,0,.38-.31.5c-.74.27-1.62-.49-2.38-.46A6.4,6.4,0,0,1,20,5c-.66,1.09-1.84,1-3,1-.9,0-2-.22-2.72.31-.51.38-.52,1.24-1,1.55S12,8,11.3,8.5A7.85,7.85,0,0,0,10,10.34c-.09.18-.51,0-.58.45,0,.3.36.71.45,1,.39,1,1.22,1.83.21,2.62,2.17-.05-.18,1.79-.48,2.4-.38.79-.74,2.62,0,3.21.46.39,1.4-.91,1.79-.26.52.85-.59.63-.82.82-1.07.83-1.79,1.83-2.83,2.78-.67.61-1.53.94-2.08,1.56a17.37,17.37,0,0,1-1.37,1.83c-.13.12-.67.39-.72.46-.23.27-.2.69-.48,1.05-.52.66-.89.59-1.38.91-.23.15-.73-.06-.93.24s.23.72.33.57a2,2,0,0,1-.13.5c0,.1-.69.08-.73.23-.25.88.51,1.36.5,2.45,0,.7-.05,1.77-.74,2.12A1.15,1.15,0,0,1,.57,35.83Z"/></g></g></svg>