<svg xmlns="http://www.w3.org/2000/svg" viewBox="0 0 120.57 108.4"><defs><style>.cls-1{fill:aqua;}</style></defs><title>Asset 8</title><g id="Layer_2" data-name="Layer 2"><g id="OBJECTS"><path class="cls-1" d="M22.19,81.46a.74.74,0,0,0,.92.84c.06-1.69,2-1,3.34-.77.62.1,1.41,0,2,.16,1.15.23,1.13,1.46,1.87,1.68.2-1.7,1.05-.85,1.54-.68.27-.69,1.57-1.6,2.34-1.24.3.13.07,1.25.57,1.6,1,.65,1.63-.1,2.51.86a6,6,0,0,1,1.43,2.23c.61-.51.35-1,1.13-1a9.2,9.2,0,0,1,1.89,1.24c0,.06.19.39.23.43.31.35-.09.65.32.91.22.14,1.22-.09,1.46,0s1.46.72,1.48.71c.43-.18.35-1.55.78-1.9s1.75-.47,2.11-.11-.06,1.28,0,1.81a2,2,0,0,1,1.49.53c-.84.52-2,.8-2.13,1.92a1.35,1.35,0,0,0,1.65,1.62c-.74,1.68,0,1,.66.92.9-.19.25-1.09,1.47-.44a1.87,1.87,0,0,1,.69,2.13c-.23.83-2,1.83-1.75,2.75.14.43.8.15,1,.41.68.79.36,1.24.85,2.08,1.8-.86,1.65.33,1.78,1.54.24,2.17.38.67,2.18,1.53.57.27.77.91,1.29,1.19a5.26,5.26,0,0,0,1,.19c.86.25,1.51-.07,1.92,1,.1.24-.19,1.41-.1,1.51a8.47,8.47,0,0,0,2.4.1c.6,0,.6-.44,1.34-.1.46.21.64,1.08,1,1.39.19-.44.8,0,1.15-.08a14.14,14.14,0,0,0,3.16-1.21c1.63-1.1-.6-1.46-1.82-1.91.49-.35.4-.79.59-1.22.56-1.2-.33-.89,1.48-1.52,2.07-.72,3.69-1,3.86-3.42.06-1-.31-1.94,0-2.87s1-1.19,1-2.08c0-.28-.38-.69-.45-1-.29-1.06,0-1.49-.79-1.86a8,8,0,0,0-2.2-.05A10,10,0,0,0,71.71,90c.23-.54,0-1.55.52-2-.87-.83-1,0-1.42-.94-.56-1.34.91-1.94,1.12-2.78S71.28,82,73,82.67c.06,0,.89,1.23,1.33,1.38-.11-.43-3.36-4.4-1.56-4.74,1.33-.25,1.13,2.87,3.07,1.79.89-.5.36-1.63,1.16-2.29.39-.33,2.23-.64,2.65-.27s.31,1.76.24,2.63c-1-.15-.46.44-.8.92.35-.49-.64,1.59-.57.83,0,.4-.7,0-.19.72.13.18,1.26.19,1.45.21,1.08.13,2.17.19,3.25.26a1.78,1.78,0,0,0,0,.69c.91-.44,2-1.61,3.06-1.27,1.35.4.12,1.6.94,2.59s1.16-.57,1.08,1.31c-.1,2.48-2.33.28-2.35,2.25,0,.62.4,0,.49.45.16.85-.2,2.06.1,2.84.46,1.17,1.6.53.43,1.62a3.59,3.59,0,0,1-1.91.75c-.51.06-2.21-.56-2.36-.5-.4.2-.58,1.58-.36,2s1.59,1.06,2.09,1.5c.28-2.66,1.46-.57,3.16-1.56,1.42-.83-.17-.75.33-1.79.14-.3.68-.16.92-.39.64-.63,1.11-.7,1.48-1.78.12-.35.1-1.12.34-1.32.89-.73,4.85.5,6,.8a1.46,1.46,0,0,0,0-.69c.86,0,1.57.17,1.87-.81.17,1.36,0,2.34,1.81,2,0,.35-.21,1,.26,1.14.24-.74,1.17-.56,1.45-1.18-1.44-.89-.61-4-1.13-5.36,1.14-.35,4.16,2,3.41-1.18-.44-1.88-3-1.08-3.7-3.3,3.76-.27-.43-1.74,1.09-3.56.39-.46,2.61,0,3.18,0A12.49,12.49,0,0,0,108,78a2.06,2.06,0,0,0-.14,1c2.36-.62.19-3.1.24-4.61-1.09,0-.63.93-1.24,1.36s-.14-.12-1,0a25.43,25.43,0,0,1-4.57.14c-1.35-.15-3-.48-3.72-1.73s-1-3.53-1.6-5c1.3.4.85-1.26,1.58-1.88s2-.34,2.82-1.3c1.37-1.6,1.79-2.52,3.83-3.35,1.48-.6,2.42-1.71,3.94-2.45.47-.23,1-.75,1.38-.92.91-.41,1.79-.29,2.67-.92a12,12,0,0,1,1.07-1.07,10.93,10.93,0,0,1,1.42-.36c.44-.31.43-1.14,1.12-1.5a4.42,4.42,0,0,1,1.91-.31h1.22c.55.16.8-.06.77-.63.11-.11.84-1.55.83-1.49.21-1.11,0-.88-.49-1.89-.41.31-1.83,3.66-2.3.73-.72,0-.87.76-1.7.67-.6-.07-.47-.81-1.19-.71s-.78.41-.59,1.12c-1.11.08-4-.62-3.46,1.38-2.05.4-1.07-2.24-.11-2.87.28-.19.25-.3.52-.39.47-.15,1.06.08,1.54,0s.53-.73,1.48-.72c-.93-1.15-3.75.61-2.17-2.18.33-.58,1.28-.48.93-1.3-.15-.38-1.09-.2-1.06-.91.08,0,.78-.17.3-.26a.79.79,0,0,0,.44-.16c-.2-.41-1.55-.39-1.88-.57-1-.57-1.1-1.4-1.46-2.48a10,10,0,0,1-.63-2.41,4.38,4.38,0,0,1,0-1.49c.12-.41.92-1.05.85-1.3-1.35,1.21-2.21,1.85-4.12,1.55a5.16,5.16,0,0,0,0,1c-1.44-.44-1.21,1.82-2.6.8-1-.75-.12-6.5.79-7.1-.51-.2-1.19-1.26-1.76-1.13,0,1.22.18,1-.3,1.3-.33.23-1.16-.31-1.5,0s.07.79-.15,1c-.5.48-.68,1-1.78.27S97,32.94,95.31,32.52c.23.79,0,1.43.41,2.38-.46,0-1.69-.25-2,0-.82.65.51,2,0,2.56a3.33,3.33,0,0,1-2.2-.21c-.27.47-.71.16-1.09-.24-.74-.76-.34-1.61-.15-2.45.45-1.91,1.28-3.09-.59-4.77-.48-.42-1.31-.63-1.71-1.1s-.38-1.13-.74-1.36a2.21,2.21,0,0,1-1.55-.27,1.34,1.34,0,0,1-.42-1,13.73,13.73,0,0,1-1.08-2.29A8.4,8.4,0,0,1,83.9,21c0-.67.08-1.33.16-2a2.07,2.07,0,0,1-.67-.28c-.21-.7-.07-2-.33-2.56-.33-.78-.46-.47-1.11-.74,0,0,0-.49,0-.5-.68,0-1.23.66-1.92.68-1.08,0-1.83-1.11-2.8-.8.36-1.18-.9-2-2-1.94a8.48,8.48,0,0,0-.12.86,4.75,4.75,0,0,0-3.2,0c.45-1.47-2.84-2.19.18-2.28a15.88,15.88,0,0,1,.08-2.3c.08-.57.65-.69.22-1.43s-.9.3-1.25-.58.55-1.35.55-1.77L72,5.15c.13-.44,0-.63-.56-.57-.08-.12-.77-.88-.89-1,.1-.73-.21-1-1-.66a4,4,0,0,1-1.33-.08c-.89-.13-1.66-.41-2.58-.46-1.76-.09-1.33,0-1.92-1.26C63.5.67,63.92-.09,63,0c-.71.07-.82,1.43-1.31,1.76-1.06.73-3-.12-4.26.3-1.76.58-1.53,2.62-2,4.24a17.83,17.83,0,0,1-1.88,5C51.59,14,50,16.53,47,18c-2.69,1.33-5.3,2.06-6.92,4.66-.32.52-.73.8-.89,1.36s.26,1.12,0,1.66C38.67,27,36.82,27.07,36,28.15s-.77,2.73-1.87,3.78A5.17,5.17,0,0,1,30.19,33c-1.83,0-3.62-.34-5.42.18-1.59.45-3.33,2.25-5.06,1.81C16.8,34.27,18,30.69,16,29.68c-3.28-1.62-5.51,2.74-7,4.68A21.31,21.31,0,0,1,5.91,38c-1.16.94-2.83,1.36-3.86,2.45s-.73,1.9-1.11,3.13C.51,45-.6,46.29.42,47.75a13.17,13.17,0,0,0,4.73,3.14c.86.19,2.26-.45,3.28.46s1.07,3.18.63,4.31c-.59,1.51-1.93,1.91-1.72,3.8a5.8,5.8,0,0,0,1.15,2.38l0,.58c-.18.49,0,.75.56.78a2.49,2.49,0,0,0,1.48,1.3c1.05.43,3.34-.1,4.14.5,1,.73.51,2.29.66,3.41a14,14,0,0,0,2,5c.9,1.51,1.45,3.05,2.5,4.48C20.38,78.78,22.29,80.58,22.19,81.46Z"/></g></g></svg>