<svg xmlns="http://www.w3.org/2000/svg" viewBox="0 0 12.13 15.39"><defs><style>.cls-1{fill:#004000;}</style></defs><title>Asset 25</title><g id="Layer_2" data-name="Layer 2"><g id="OBJECTS"><path class="cls-1" d="M1.07,14c.57,1.1.6.87,2,1,1,.1,2.18.73,3,.13,1.25-.93.1-1.38,2.14-1.31.18,0,.53.31.7.34s.41-.29.66-.25c.59.07.18.22.75.06.33-.09.24-.11.73.18,0-1,1.28-.88,1.06-2.15-.19-1.11-1.59-1.31-1.6-2.79a7.28,7.28,0,0,1,.67-2,6.38,6.38,0,0,0,.34-2.74c0-.92-.17-3.28-1.55-3.89-.52-.23-.69.17-1.14,0C8.58.49,8.57,0,8.54,0,7.72,0,7.15,0,7.07,1.25a4.94,4.94,0,0,1-1-.47c0,.1-.79,1.6-1,1.35-.72-1-.47,0-1.2.16a13,13,0,0,1-2.48.23c0,1,.85,1.3.63,2.52A12.39,12.39,0,0,1,1,7.85a4.2,4.2,0,0,0-.66,2.5c0,.51,0,2.84-.33,3.12C.39,13.55.86,13.6,1.07,14Z"/></g></g></svg>