<svg xmlns="http://www.w3.org/2000/svg" viewBox="0 0 62.95 85.66"><defs><style>.cls-1{fill:#0080ff;}</style></defs><title>Asset 17</title><g id="Layer_2" data-name="Layer 2"><g id="OBJECTS"><path class="cls-1" d="M48.16,67.55c-.56-.31-.42-1-.45-1.53a6.53,6.53,0,0,0-1.56.28,4.49,4.49,0,0,1-2.51-.37c-1.88-.82-3-1.22-2.41-3.43.43-1.64,1.75-2.86,2.62-4.24.23-.37,3-3.47,2.95-3.51-.14-.39-.61,0-.63-.4a4.76,4.76,0,0,1,.1-1.13,4.6,4.6,0,0,1,1.15-2.1c1.7-1.45,5.74.26,7.79.12-.65-1.22-4.05-1.29-5.12-.81-.19-.5,2.87-.68,3.33-.62a2.79,2.79,0,0,1,2.22,1.57c1-1.65.48-7.38-.54-8.59-.68-.81-2.22-1-2-2.39.84,0,1-1.44,2.31-.66,0-2.2.19-4.68-.45-6.75-.53-1.74-.27-2.85-.19-4.72-.26.08-.12,0-.25-.07-.45.14-1.62-.55-2.56-.81.37-.75-.37-1-1.14-1,.1-.64.49-.83,1.12-.87a11.19,11.19,0,0,1-.1-1.75c.32-.29,1.34-.29,1.43.27.38-1.65,1.21.71,1,.62a.93.93,0,0,0,1.29-.53c.57-1.07-.52-1.29-.52-1.44.05-1.37.82-.15,1-.16.61,0,.36-.74.61-1.11a15,15,0,0,1,1.62-1.79c.75-.82,2.53-3.24.31-3.47,1.12,0,1.21.38,2-.65a9.52,9.52,0,0,0,1.07-2.85c.32-1.3.08-2.63.49-3.91a8.94,8.94,0,0,0,.85-3.93,6,6,0,0,0-1.39-3.57A1.37,1.37,0,0,0,61,.78c-1-.56-.87.21-1.38.17C58.4.87,59,0,58.17,0c-.06,2-.35,1-1.27,2.4-.69,1.07,0,1.44-.89,1.95-.31.17-.8-.12-1.12.11-.16.11-.3.61-.34.63-.23.14,0,.36-.38.56-1.72.8-1.47-1.71-2.11-1.5.08,0-.74,1-1.25,1,.08-1.22-.89-2.33-2.27-1.52A3.58,3.58,0,0,0,49.68,4c-.79.27-.41.72-.77,1.19-.06.08-.55.74-.6.82-.65,1-1.09,1.57-2.16.89a2.07,2.07,0,0,0-.12.89c-.91-.1-1,.82-2.05.79s-1.67-1.1-2.82-1.29c-.9-.14-3.76.09-4.28,1-.29.49.41,2.06.11,2.83a20.09,20.09,0,0,1-1.46,1.74c-.91,1.19-2,2-3.4,1.46-1-.4-1.12-1.36-1.71-1.81A14.39,14.39,0,0,0,27.92,11c-.85,2.27-2.26-1-3.63,0-.44.33-.14,1.81-.55,2.31-.63.8-1.8.73-2.72.75A9.77,9.77,0,0,1,21,16c.47.07.37.28.39.79.11,2-.86,2.29-2.15,3.44,1,.66,3-.27,3.88.82a2.89,2.89,0,0,1,.19,2.09,13.45,13.45,0,0,1-.93,1.67c-.15.12-.07.26-.26.41-.7.51-1.95-.22-2.76.55-1.59,1.49.55,2.47-1.86,2.08-.64-.1-1.3-.38-2-.45a3.45,3.45,0,0,0-1.5-.06c-.24.08-.29.5-.34.51-.51.09-.31.05-1.19-.22-.73-.22-1.31-.68-2.18,0-1.81,1.32.05,2.69-2.75,2.68a10.66,10.66,0,0,0-2.77.32c0-.18,0-.36,0-.55-.61,0,0-.58-.64-1-.8-.54-1.38.47-1.74.8-.88.8-1,1.28-2.41.49-.25,1.76,0,1.66,1.49,2.11a5.33,5.33,0,0,1,1.87,1.05c.61.46,1.16.1,1.2,1.14,0,0-1.22,1.55-1.3,1.65,3.13-.21,4.15.07,4.07,3.28-.12,0-.76-.08-.79,0-.33,1.07.07,1.08.75,1.58,1.5,1.13,2.54,1.18,2.29,3.5C9.53,45.82,9,47,8.85,48.21a4.93,4.93,0,0,0,.37,2.53c.41.55,1.39.57,1.6,1.32-.33,0,1.15-1.22,1.11-1.19A4,4,0,0,1,13.36,50c1.32-.36,2,.46,2.2,1.7a4,4,0,0,1-.19,1.78c-.11.33-.65.43-.66.61,0,.38.38.41.42.6.09.42.79.62.68,1.33,0,.14-.37.21-.41.34A12.13,12.13,0,0,0,15,57.75,10.8,10.8,0,0,1,15.1,59c0,.32-.44.26-.54.65-.2.74-.47,1.74,0,2.19.94.8.58-.19,1.2-.1s1.46.05,1.5,1.35c0,1.12-1.18,2.16-1,3.54-.62-.18-.67,0-.93.53s0,1.33-.2,1.88a9.48,9.48,0,0,1-.74,1.37c-.36.7-.85,0-.29,1.1.19.39.89.69,1,.93.85,2-1.34,2.21-.93,3.93.13.57,2,3.58-.13,3.08,0,1.65-.25,2.47-2.13,3,1,1.68,4.94,3.79,7,3.14.74-.24.47-.57,1-.82.79-.4,1.82-.21,2.65-.73s1-1.24,1.76-1.73,1.79-.42,2.53-1.09a6.53,6.53,0,0,0,1.7-2.73c.24-1.58-.45-1-1.72-1,0-.73,1-.19,1.25-.39.63-.42.3-.18.77-1,.69-1.26.13-2.31.56-3.59.31-.92.78-1.12,1.59-1.59,1.31-.78,1.82-1.37,3.41-1.69A15.46,15.46,0,0,0,37.72,68a9.94,9.94,0,0,1,2.8-1c2.13-.35,6.16-.42,7.85,1.14C48.67,67.81,48.6,67.6,48.16,67.55Z"/></g></g></svg>