<svg xmlns="http://www.w3.org/2000/svg" viewBox="0 0 67.2 61.06"><defs><style>.cls-1{fill:#80ffff;}</style></defs><title>Asset 22</title><g id="Layer_2" data-name="Layer 2"><g id="OBJECTS"><path class="cls-1" d="M5.37,24.19c-.65,1.07,2.2.74,2.5,1,.64.6-.2.83-.45.86-.08.88.3,1.65.14,2.56,0,.05-.51-.05-.52.05,0,.3.26.61.24.89-.14,1.35.13,1.53-.76,2.65-.18.22-.85.5-.95.67s.16.83,0,1.07-.61.13-.63.16c-.1.21-.19.94-.35,1.22s-1-.23-1.09.29c.57,0,1.41.45,2,.56s2.33-.12,2.4.83-.68.65-1.34.92c-1.35.57-1.79,1.72-2.69,2.79-.31.39-.87.52-1.22,1.08.64.85,1.29,0,1.65,1.16.28,1-.79,2.39-.82,3.2-.05,1.14,1,2.15-.49,2.17.12,1.47,1,1.89.22,3.12a12.53,12.53,0,0,1-1,1C1.73,52.83,0,52.2,0,53c.69.09,5.35.85,5.62,1.32s-.23,1-.59,1.41c-1.95,2.13.08-1.62-1.05.69a6.46,6.46,0,0,0-.08,2c0,1.6-.1,1.93,1.57,1.89a3.3,3.3,0,0,1,1.83.28,5.23,5.23,0,0,0,1.92.52c1.33-.16,1-1.32,1.85-.08a7.49,7.49,0,0,1,2-.23c1.15-.13.39.74,1.74-.2.27-.19.53.18.77-.2s-.51-1.06-.35-1.52c.33-1,1.32-.61,2.29-.65a19,19,0,0,1,3.7-.26c.76.11,1.71,1.42,2.5.45.19-.24-.21-.9-.08-1,.58-.59,1,.27,1.58.68-.08-1.56.08-3.09,2.09-3.06,1.49,0,1.59,1.51,2.72-.17a20.22,20.22,0,0,0,.45-2A3.85,3.85,0,0,1,31,51.51a2.16,2.16,0,0,1,1.2-.82c.19-.07.8.05,1,0s.58-.53.84-.64.62.19.85.1.74-.55,1.06-.65c0,0,1.12-.25.92-.16.09,0,1-.66,1.06-.66,1-.29.58-.18,1.45.28a7.35,7.35,0,0,0,1.06.2c-.08,0,.17.64.14.64.4,0,.7-.31,1-.47a2.33,2.33,0,0,0,1.19-1.06c.37-.71-.25-1.22.12-1.71-2.09-.1-.36-1.87.42-2.4.21-.15,1.25-.86,1.52-.82.43.07.43.71.75,1s.66.31,1,.66c.19.2.33.68.53.93a4.05,4.05,0,0,0,2.2,1.42c1.07.14,1,.1,1-.81-.09-1.11-.52-.86-1.59-1.14-1.27-.33-1.46-.38-1.38-1.66.09-1.51.33-.93,1.52-.17.69-.38.55-1.26,1.23-1.58s1.65.37,1.86,1a5.43,5.43,0,0,1,2.72.5c0-1.19-.26-.7.36-1.67.06-.09.37-.87.39-.88.49-.18,1.52.15,2.09.09s1.14-.25,1.74-.33c.09-.3-.36-.73,0-1A6.85,6.85,0,0,1,61,38.85c1-.4,2.41-.12,3-1.29s.28-2.61,1-3.81A4,4,0,0,1,66,32.64c.33-.26,1.14-.09,1.21-.57a21.7,21.7,0,0,1-4.59.63,19.77,19.77,0,0,1-2.15.28c-.7,0-.92-.51-1.67-.4-1.79.26-2.23,1.77-2.65-.9-.24-1.49-.71-2.54-.58-3.95-.74.32-.88-.07-1.18-.14-.12,0,0-.51-.47-.61-.19-.05-.22.39-.41.39-1.47-.05-.94.48-1.22-.84-.05-.23.24-.61.2-.94A9.17,9.17,0,0,0,52,24.43c-.56-1.34-1.79-4-3.36-4.26-.21,0-.82.52-1.34.45-.76-.11-.83-.7-1.38-1-.89-.5-1.73-.36-2.77-.71a3.24,3.24,0,0,1-2.4-2.06.69.69,0,0,0,.35-1.06l-.22-.67c-.12-.3-.12-.62-.27-.91s-.76-.16-.88-.76c-.16-.86.37-1,.65-1.65a11.17,11.17,0,0,0,.77-3.44c0-1.5-2.21-2.93-3.35-3.27a6.69,6.69,0,0,0-1.27,0c-.28.08-.65.7-.87.7-1.47,0,0-.06-.87-.48-.56.68.15,1.54-1.28,1C32.8,6,33.21,5,32.23,5.4c.42-1.06-1-.41-1.5-1.26,0,.9-.58,1.58.39,2.12C30,6.78,29.71,6,28.77,5.64A5.65,5.65,0,0,1,26,5.87c-.84-.81.49-1.54.62-2.21-1.5-.13-1.56.47-2.05-.45-.38-.7.38-1.23-.36-1.67a6.38,6.38,0,0,0-1.54-.12c-.8-.06-2.44.28-3.18,0-.25-.1-.72-.94-1.32-1.19-1.81-.76-.23.69-.52,2-.08.33-.69.22-.74.41s.25.22.22.33c-.5,2.47.59,4.07-3,4.43.68.33,1.34,1.24,1,1.76s-2.16.72-2.51.53c-1-.53-.62-2.72-1.73-.56-.29.56-.17,1.07-.4,1.59-.3.71-1.13.76-1.38,1.38.55.51,1.37,2.78,2.14,1.73.19,1.56-.54,1.47-1.45,2.4-.64.67-1.28,3.13-1.78,3.44-.92.59-2.13-.36-2.32,1.31C5.58,22.25,6.23,22.79,5.37,24.19Z"/></g></g></svg>