<svg xmlns="http://www.w3.org/2000/svg" viewBox="0 0 15.8 23.5"><defs><style>.cls-1{fill:#ff8080;}</style></defs><title>Asset 31</title><g id="Layer_2" data-name="Layer 2"><g id="OBJECTS"><path class="cls-1" d="M12.93,3.05A11.1,11.1,0,0,0,13,0c-.33.33-.48.83-.68,1a6.61,6.61,0,0,0-.95.5c-.92.76-1.1,1.93-2,2.67-2.16-2.06-2.76.84-5,1.42-1.41.36-2.38,0-3.1,1.57C.89,8.15.65,9.73.29,10.83c-.53,1.61-.32,2.11.53,3.46,1,1.56.77,2.55,1.29,4.25.18.6.58,3.84,1.18,4.1,1.55.66,1-1.69.88-2.32s-.79-2.94.55-2.12c.91.56.54,2.13,1,3,.24.48,1.7,2.37,2.26,2.32.73-.07,2.2-2.8,2.26-3.34.14-1.24-1.47-2.8-.68-4,.25-.38,1.1-.09,1.25-.37.3-.57,0-.83.1-1.54a6.8,6.8,0,0,1,.38-2c.36-.33.64.08,1-.16l.45.08a2.62,2.62,0,0,1,.53-1c.55-.2.54-1,1,.15.13-.86.91-.62,1.16-1.07a6.5,6.5,0,0,0,.36-2.66c0-.63-.33-3.44-.87-3.71a.25.25,0,0,0,.32-.26l-.54.1a5.43,5.43,0,0,1,0-.9C14.09,2.92,13.51,3,12.93,3.05Z"/></g></g></svg>