<svg xmlns="http://www.w3.org/2000/svg" viewBox="0 0 103.48 99.5"><defs><style>.cls-1{fill:#f0f;}</style></defs><title>Asset 13</title><g id="Layer_2" data-name="Layer 2"><g id="OBJECTS"><path class="cls-1" d="M41.9,25.32c-.9,2.49-2.63-.63-3.88-.22,0-.48,0-1,0-1.44-1.74-.1-4.18.6-5.62-.17.18.1-.34-.8-.34-.8s-2.07-.81-2.08-.82c-.59-.24-1.43-.4-1.65-.78-.93-1.64.41-1.26-1.95-1.46C25,19.52,24.69,19,23.81,18c-1.57-1.88-.44-1.76,1.26-2.71-.13-.37-1.49-.84-1.9-1.12a19.17,19.17,0,0,1-2.86-2.19c-.65-.69-.87-1.9-1.7-2.4-1-.59-.6-.21-1.55.07a3.71,3.71,0,0,0-1.23.58c-.07,0-1,.6-1.12.71-.32.34-.61,1.33-1.11,1.5s-1.45-.9-1.95-1.14a1.19,1.19,0,0,0,.3-1.18c-.81.22-2.14.71-2.79-.1C8.84,9.59,9.1,8.93,9,8.49s-.66-.76-.58-1.4C8.5,6.16,10,4.9,10.31,4s.12-1.54,1.06-2A11,11,0,0,1,7.68,0,16.1,16.1,0,0,1,5,4.32c-.15.19,0,.45-.15.58s-.77-.13-1,.11A12.58,12.58,0,0,0,3.1,6.39s-.18,0-.21,0c-.31.43-.34-.08-.68.63-.19.38.08,1,0,1.46C1.49,10.89-.07,12.15,0,15c.05,1.72.82,3.37.88,5.14a7.42,7.42,0,0,0,.66,3C2,24.19,3,24.8,3.05,26.22c0,.28-.46.29-.44.42s.32.2.32.31A6.34,6.34,0,0,0,4.06,30.3a12,12,0,0,1,1.63,3c.59,1.86-.1,1-.87,2.2-.66,1,.36,1.3.31,2.24,0-.41-.66.66-.51.45,0,0-.49.85-.52.93a4.68,4.68,0,0,0-.27,2.09c.14,1.2.64,3.42,1.55,4.11.2.15,4.05,1.12,1.78,1.79,2,.74.34,1.25.75,2.46-.11,0-.88-.19-.92-.06-.32.9,0,.53.43.82.91.56,2-.06,2.14,1.52-.44,0-6.46,1.51-4.8,2.85.12-2.51,4.15-.14,3.49-2.39,1.31-.18,2.06.44,3.09.37.42,0,1.18-.19,1.46-.16.13,0,0,.85.31.88.05-.54.94-2.1,1.69-2,.32.06.16.57.47.75a3,3,0,0,0,1.67.64c-.34.07-1.3.42-1.33.88,1.82-.41,2.27,0,4.06.41a6.18,6.18,0,0,0,2.23-.31,3.63,3.63,0,0,1,2.74.95,5.9,5.9,0,0,1,1.92,1.9,7.19,7.19,0,0,0,.11,1.22c.24.38.48.75.73,1.12a4.76,4.76,0,0,1,.22,2.77c-.38,1.18-.09.3-.88,1.42a6.11,6.11,0,0,0-.81,1.89c-.42,1.57-1.83,2.95-1.88,4.66a3,3,0,0,0-.55-.45c-.26.53.13.88-.23,1.18.52,1.06.85,1.27-.3,2a14,14,0,0,1-1.84.65c-.62.14-2.23-.37-2.75.11s.11,1.3-.27,1.71c-.64.71-.75-.48-1.21.69a3.5,3.5,0,0,0,.14,2c.2.44.59.12.76.43a3,3,0,0,1,.35,1.72,1.4,1.4,0,0,0-1.33.94c-.59,1.32-.3,2.55-2.26,3,.39,1.13,1.17,2.18,1.31,3.43,0-.18-.23,2.38-.53,1.78.27.55.69.13.9.5.38.63.85.37,1,1.46.07.4-.48,1.51,0,1.56s.93-1.6,1.62-2c.17,1.05.72.39,1.35.93s.55,1.57,1.27,2.1c.12-.84,1.48-.9,1.87,0,.39-.33,1.45-.72,1.73-1.05.95-1.15,0-1.35-.25-2.15-.1-.32-.38,0-.46-.36-.12-.51.54-.7.55-.88,0-.5.06-.86-.37-1.22C23,86.56,22,89.65,22.37,86.09c.07-.7.41-1.49.1-2.17-.2-.45-1.15-.3-1.44-1.35-.21-.8-.23-1.83-.43-2.36,0,.09-.33-.29-.38-.43-.29-.7.08-1.53-.56-2.11-.49-.44-1.4.26-1.55-.67-.07-.41.26-.32.32-.45-.23.52,1.05-1,.84-.84.79-.65,2.47-1.54,2.46.26,1.05.06.31-.37.76-.88.07-.08.56-.1.59-.13s0-.78.14-.88.51,0,.66-.15,1-1.33,1.5-1c.77.58-.29,1.18-.24,1.71s.48,1.13.56,1.73c-.65,0-1.74.08-1.66,1l.16.09c.24-1.44,2.33-.92,1.17.74,1.22-.43,1.78.38,1.89,1.24.83-.29,2,.27,2.6-.07.34-.21-.16-.46.39-.72-.07-.72-.68-1.51-.77-2.32.68.08,1.38.57,2.05.44-.31,1.45,1,.4,1.43.95.82,1.21-2.32,2.15-1.58,3.4.2-1,2.15-1.06,2.15-1.06s0-1,.47-.87c.76.15.41.53.81.68a7,7,0,0,0,2.71-.08c.33-.31-.06-.89.24-1.4.46-.78.67-.28,1.15-.52.7-.36,1.91-.43,1.14-1.51.64-.17,1.35.06,1.91-.06s1.3-1.11,2-.77c.35.18.67,1.33,1.17,1.83.2.2,1,.71,1.08.92.39,1-.59,1.1-.79,1.74s0,.3-.13.84c1.07-.54,1.39.57,1.36,1.33.61,0-.86-3,1.2-2,0-.94,1.63.5,2.07.49-.25-1.18,1.32-.62,1.32-.62a6.44,6.44,0,0,1,1.35-.47c-.35,1.07-.27,2.49-.73,3.55a2.49,2.49,0,0,1,2-.34c1,.07,2.11.13,2.63-.43A9.47,9.47,0,0,0,57,81.08a5,5,0,0,0-.09-1c.3-.48,1.26-.26,1.26-.26a1.31,1.31,0,0,1,1.16-.24c.31.09.48.75,1,.87,0-.07.57-1.8,1.48-1.65.73.12,1.14.79.89,2.21a3.39,3.39,0,0,1,1.55.1c.25.08.23.68.56.81s2-.1,2.18.19c.39.51-.34,1.59.14,2.17s1.9,0,2.64.2c0,0,0,.51,0,.53a8.13,8.13,0,0,1,1.4.29c.54.33,0,.91.28,1.55,0,.09.76,0,.89.16s0,.72,0,.74a1.21,1.21,0,0,1,.63.44c-.14-1.31-.22-.89.44-1.23s1.65.13,2.24,0c.28,0,.94-.47,1.07-.47,1.24,0,1.1.31,1.78,1.06.31.34.74.12.93.71.35,1.06-.41,1.56-1.37,1.27,0,.79-.07.5.44.56a2.88,2.88,0,0,0,0,1.34.82.82,0,0,1,.8,1c-.07.34-.16.67-.26,1-.2.87-.64,1.21-.66,2.28a1.91,1.91,0,0,0-.63,0c0-.5,1.17,1.81,1.14,1.76a3.77,3.77,0,0,0,.47,0c-.11.6,2.53,1.76,3,1.86,1.72.35,2,0,2.57-1.2.32-.73.62-2.19,1.74-2.22-.92-1.47.33-1.1.68-2.16.08-.27-.38-.47-.32-.72s.27-1.13.32-1.45c.08-.55-.52-1.55-.15-2.17s1.33-.24,1.65-1.14c.57-1.6-1.51-2.3-2.1-3.36a7.49,7.49,0,0,1-.68-4.83c.76-3.09,4.24-3,6.33-4.83.55-.49.66-1.25,1.15-1.79s1.27-.64,1.77-1.1c.83-.75.81-2.11,2.34-1.91.77.1.49.72,1.1.77.16,0,.63-.72.92-.8.73-.21,3.16,1,3.61.05.53-1.1-1.14-1.45-1.72-1.67a14.52,14.52,0,0,1-2.48-1.27c-1.54-.95-3.85-2.87-4.46-4.81,1,.13,2.92-.19,2.45-1.5s-2.1-.44-3-1.19a1.51,1.51,0,0,1-.34-1.67c.49-.75,1.11-.22,1.65-.51s.66-.87,1.56-1c.47-.09,3,.42,3.21-.22,0-.16-1.45-.59-1.52-.63-.75-.52-.16-1.58-.75-2.22-.27-.3-1.47,0-2-.22-1.23-.61-.62-1.41-1-2.44s-.56-.53-1-1.09-.33-1.37-.63-2.08a6.38,6.38,0,0,0-3.54-3.3c-.76-.31-2.71-.74-3.48-.28-.56.34-.54,1.32-1.41,1.6-1.4.45-1.56-1.7-3.42-1.84-1.67-.12-2.82-.32-4.6-.44,0-.79.18-2.69-.67-3.2s-2.41.75-3.41.44c-.78-.24-1.18-1.07-1.87-1.51a15.75,15.75,0,0,0-3.45-1.56c-1-.27-.89.13-1.68.17-.28,0-.44.43-.84.39-.09,0-.91-.85-1.1-1-.47-.29-1.13-.28-1.6-.58l-.91-.4,0-.52a19.09,19.09,0,0,0-2.65-1.73c-1.63-.72-1.22.13-1.8-1.79-.52-1.71-2.08-2-3.56-2.75-1.66-.82-2.65-.87-4.25-2.08-1.37-1-2.61-3.05-2.8-.19-.64.07-.56-.68-1-.81a7.24,7.24,0,0,1-1.69-.6C43.18,25.65,42.51,23.65,41.9,25.32Z"/></g></g></svg>