<svg xmlns="http://www.w3.org/2000/svg" viewBox="0 0 46.49 43.33"><defs><style>.cls-1{fill:maroon;}</style></defs><title>Asset 6</title><g id="Layer_2" data-name="Layer 2"><g id="OBJECTS"><path class="cls-1" d="M19.27,3.81c.33.33,1.17,1.21,1,1.71-.16.65-2.1.78-2.69.51-.38-.18-.57-1.07-1.31-1.4a7.43,7.43,0,0,0-2.58-.23c-2-.2-3.56-1-5.5-.09l-.92.17a2.2,2.2,0,0,1-.24.79c-.42.2-.47.42-1,.52s-.55-.65-1.36-.36A2.68,2.68,0,0,0,3.47,7c.13,0,.23,0,.36,0,.26.91-.46,1.12-1.22,1.07.05.85.48.85.49,1.68-.89-.18-1.14,1.2-1.29,2,.87.37.18,1.35.24,2.16s1,.68.16,1.73c-.45.54-1.63.71-2.21,1.16a5.37,5.37,0,0,0,1.91,1.72c.37.23,2.9.81,3,1.15.12.73-.92.49-1.18.86-.48.67-.43,1.86-.87,2.61-.94,1.57-1.56,1.43-.82,3.35.42,1.09-.05,1.1,1.29,1.1A10.11,10.11,0,0,0,5,27.07c-.06.58-.32,2.58.78,2.44L7,28.07c.13-.15.58-.14.75-.25s.16-.7.64-1a3.24,3.24,0,0,1,3,0c1.19.88,1.66,2.34,2.9,3.3.6.46,2.89,1.63,3.34,2.23,1.23,1.64-1.1.87-1.55,1.61-.59.95,1,1.55,1.58,2s-.13.52,1,.83c.68.19,1.52-.47,2.19.15.42.39.15,1,.42,1.34.65.88,2.42,1,3.47,1.63a3,3,0,0,1,.6,1,7.82,7.82,0,0,0,2.06.07c.86,0,2.72-.4,3.44-.12.16.07,0,.18.12.24,0,.28,0,.57,0,.85s.14.37.57.18a1.65,1.65,0,0,0,.49.41c.13.05.93.79.8.78,1.27.1.69-.69,1.53-1.27-1.59-.72,1-3.11,1.49-4s.6-1.67,1.07-2.34a1.33,1.33,0,0,0,.44-.85l.89,0c.4-1-1.37-2.5-.46-4,.38-.6,1-.58,1.29-1.08.46-.66,0-1.17.07-1.83.12-1.21-.14-1,.71-1.82.35-.34.9-.35,1.24-.82s.19-1.41.75-1.87,1.09,0,1.49-.24c.72-.45.94-2,1.68-2.51.36-.23,1.12.1,1.32-.18.66-.91-1.59-1.93-1.91-2.12-.59-.37-.78-.22-1.36-.79s-.54-1-1.27-1.52a17.36,17.36,0,0,0-2-1c-.93-.4-2.06,0-2.92-.42-1-.44-.81-.6-1.29-1.58a3.6,3.6,0,0,1,0-1.31,1,1,0,0,1-.82-.55C34,10,33.57,10.48,32.28,9.84s-1.16-2.25-2.76-2.29c-1.92,0-1.49,1.38-3.28,0A9.65,9.65,0,0,1,23.8,4.71c-.3-.5-.61-.93-.92-1.44-.42-.7.28-1.6-1.17-1.24.62-.16-1.08-2-1.42-2a2.55,2.55,0,0,1-.05,1,1.79,1.79,0,0,1-.75.17c-.25.52-.25,1.64-1,1.75A4,4,0,0,0,19.27,3.81Z"/></g></g></svg>