<svg xmlns="http://www.w3.org/2000/svg" viewBox="0 0 51.96 86.22"><defs><style>.cls-1{fill:#ff0080;}</style></defs><title>Asset 24</title><g id="Layer_2" data-name="Layer 2"><g id="OBJECTS"><path class="cls-1" d="M49.57,13.54A5.27,5.27,0,0,0,51,12c.18-.26.84-.69.94-1,.19-.58-.17-.18-.18-.65,0-1.33-.38-2.35.22-3.71-1.62.48-3.29-.1-4.86.64a1.3,1.3,0,0,1,.53-1.08,21.47,21.47,0,0,1-2.16-.88c-1.05-.32-1.09,0-2.09.15-2,.41-1.66-.15-3.06-1.06-.43-.29-1-.16-1.54-.47-.83-.51-.95-1.16-1.3-2s-1.05-2.28-1.6-.63A3.88,3.88,0,0,0,35.4.39c-.65.66-1-.24-1.5-.16-1.26.16-.07,0-.76.74a2.71,2.71,0,0,1-2.87.79,21.91,21.91,0,0,1-2.62-.35C26.8,1.15,26.6.1,26.07,0c.14,1.07-.13,1.73.4,2.48.13.18.68.34.89.59a1.9,1.9,0,0,1,.43.82c.13.49,0,.95.17,1.45s.75.87.92,1.4c.41,1.26,0,.76-.4,1.83,1.41,1,1.07.87,1.3,2.6.21,1.53,1.06,2.61-.15,3.89-.59.62-1.25,1.11-1.82,1.77-.11.13-.79.53-1,.69s-.28.87-.46,1.08a6.86,6.86,0,0,1-1.11,0,2.11,2.11,0,0,1-.13.82,2.4,2.4,0,0,0-.51,1.39c.1.45,1.08,1.2,1.43,1.43.78.51,1.42.43,1.93,1.52a9.81,9.81,0,0,1,.62,3.06c-1.27.17-1.33-.69-2.45,0s.9.95-1.42,1c.15.55,1.6,2.36,1.59,2.63,0,.76-1.3,1.07-1.15,1.83.06.32,1.2,1,1.42,1.52a4.85,4.85,0,0,1,.13,2.92c-.23.89.11.86-.65,1.21-.08.74,2.12,1.62,1.12,3-.46.65-1.48-.23-1.72,1,0,.14.54.55.62,1,.27,1.48-1,2.81-2.12,3.46a1.56,1.56,0,0,1,.81,1.21c-.82,0-1.67,0-1.28,1C22,47.27,22.31,49,22,49.67c-.2.46.18.55-.27.72-.83.31-1.72-1-2.72-1,.77.87.58,3.31-1,2.79.51,2-1.93.38-2.73.41-1.06,0-1-.1-1,1.24-.83-1.16-.65-.27-1.09.19-.61.63-.21.82-1.21,1.23a12.49,12.49,0,0,0-3.09,1.3,6.63,6.63,0,0,0-1.64,1.67c-.49.64-.15.78-1,1a2.32,2.32,0,0,1-1.95-.53c-.92-.73,0-1.5-1.7-1.17.45,1.79-.14,1.31-1.86,1.33C1.58,60.65,0,61,0,62.49c1-.07.67.64,1.09.78s.92-.22,1.3,0c.62.3.6.53,1.13.86.19.12,1.21.68,1.46.82,1,.56.18.33,1.27.65-.06,0,1.42.19,1.31.19.59,0,2.75-.39,2.5.87-.15.76-1.32.21-1.17,1.6.19,1.81,2.9,1.35,2.65,3.13,1.09-.17,3.13,1.75,1.82,2.64,1.07.66.58.93,1.13,1.68.26.34.85.49,1.21.87-1.42.08-2.78,1.23-1.12,2.11.79.42,1.7-.09,2.32.9.23.37-.09,3.27.93,3-.62-.21.73-.7.59-.58.79-.68,1-2,2.13-.35.36.49.2,1.12.63,1.57a7.7,7.7,0,0,0,1.75.78c1,.48,1.88,1,1.81,2.27.68-.59,1.44-.51,2.13-.94s.64-.65,1.06-1.24a18.23,18.23,0,0,1,2.23-2.76,12.66,12.66,0,0,1,1.51-1.44c1.72-1.13.94-1.6.44-3.45,1.3-.38,1.57,1.39,1.37,2.29-.32,1.48-.61,1.12-.1,2.59,0,.07.43,1.43.37,1.38.87.64,1.34-1.59,2.57-1.44a.55.55,0,0,1,.22.7c.63.23.88.06.75-.53.42-.15.26-.52,1.08-.59-.31-.93-.22-2.4.45-2.92.25-.2,1,0,1.31-.1a7.65,7.65,0,0,0,1-1c.31-.36.72-1.28,1.12-1.46,1.21-.54,2.34,1.29,3.08,1.83-.21-1.1-1-1.85-1.36-2.88a18.72,18.72,0,0,1-.3-2.34c-.34-1.62-1.18-3.21-1.19-4.77,0-.78.21-1.11-.18-1.91-.24-.5-.76-.64-.89-1.08-.23-.76.55-3.64,1.65-3.34-1.19-.71-1.89-.16-2.94-.13s-1.1-.08-1-1.56c0-.58.83-2.11.59-2.58s-1.84-1.15-2.36-1.65c-.81-.79-.33,1.14-.89-.92a4.64,4.64,0,0,1,0-2.16c.42-1.08,1.12-.91,1.76-1.8a4.34,4.34,0,0,0,.58-4.11c-.6-1.12-1.74-1.08-3-1.36a5.78,5.78,0,0,1,2.38.27c0,.05.1.1.13.12C37.77,44,36,44,35,43.8a12.76,12.76,0,0,1-1.76-.36c-.68-.28-.24-.4-.81-.73a9.89,9.89,0,0,1-2.06-1.14,15,15,0,0,1-1.56-2c-.24-.85.67-2.86,1.08-3.87.25-.6.31-1.45,1.5-.92.83.37.18,1.19,1.44,1a.84.84,0,0,1-.53-1c1.4-.09.56-.08,1.22-.84.39-.45.67-.37.84-.89.39-1.16-.91-1.43.44-2.14a7,7,0,0,1,2.24-.18c1.88-.06,4.8.18,4.1-2.89-1.07-.21-.29,1.24-1.68.44C38.81,28,38.24,26.3,38,25.59a2.85,2.85,0,0,1-4.36-.25c-.89-1.22-.43-2-2.18-2.81-1.53-.71-3,.23-2.68-2,.07-.54.38-1,.47-1.48.5-.06.6-.32.31-.77a.84.84,0,0,1-.23-.83c.16-1,.89-1,1.58-1.59s.65-.94,1.1-1.35,1.64-1.06,1.48-1.62c-.25-.87-.65-.24-1.15-.74-.67-.68-1.47-2.31.12-2.06-.31,0,1.26,1.17,1.11,1,.73.61.49.71,1.76.8-.42,1.59.72.14,1.23,1.17C37,14,36,14.61,36,15.39a3.92,3.92,0,0,0,1.08-.06,6.21,6.21,0,0,0,.08,1.55c.18-1,.23-3.39,1.14-1.74.78-1.62.78-.25,2.58-.4-.31-.41-2-2.29-1.73-2.83.42-.8,1.93.16,2.28.59,1.16,1.43.43,3,2.27,4.2a6.57,6.57,0,0,0,2.82,1.18c1.35.17,1.26.08,1.82-.85S48.77,14.22,49.57,13.54Z"/></g></g></svg>